 <svg  version="1.0" xmlns="http://www.w3.org/2000/svg"  width="356.000000pt" height="156.000000pt" viewBox="0 0 356.000000 156.000000"  preserveAspectRatio="xMidYMid meet">  <g transform="translate(0.000000,156.000000) scale(0.050000,-0.050000)" fill="#f97316" stroke="none"> <path d="M3231 2058 c-232 -80 -393 -219 -500 -431 l-50 -100 -111 -3 c-507 -13 -750 -661 -384 -1020 160 -157 224 -173 714 -180 l430 -6 520 374 c566 406 585 416 701 376 119 -41 165 -125 141 -256 -34 -179 -144 -232 -478 -232 l-251 0 -166 -113 c-92 -62 -176 -122 -187 -132 -51 -46 935 -8 1024 40 497 265 385 967 -153 965 -156 -1 -209 -31 -748 -417 l-477 -343 -359 0 c-456 0 -588 57 -628 271 -68 359 398 585 601 291 l40 -57 0 172 c1 516 559 766 976 438 108 -85 120 -73 -516 -526 -319 -227 -582 -419 -585 -426 -3 -7 96 -8 220 -3 l225 10 510 367 c281 201 523 373 538 382 43 24 -66 222 -192 349 -225 227 -564 310 -855 210z"/> </g> </svg> 