<svg version="1.1" id="Layer_1" xmlns="http://www.w3.org/2000/svg" xmlns:xlink="http://www.w3.org/1999/xlink" x="0px" y="0px"
	 width="100%" viewBox="0 0 1605 1568" enable-background="new 0 0 1605 1568" xml:space="preserve">
<path fill="#427AF4" opacity="1.000000" stroke="none" 
	d="
M473.000000,1569.000000 
	C468.310760,1569.000000 463.621490,1569.000000 458.288696,1568.649902 
	C437.187073,1565.174561 423.701691,1547.582520 422.008575,1526.921875 
	C420.617432,1509.945557 427.719208,1495.385620 436.126434,1481.624146 
	C445.153992,1466.847534 455.789154,1453.058228 464.953217,1438.358521 
	C474.641693,1422.817139 483.536011,1406.774048 492.562469,1390.828613 
	C499.067017,1379.338135 501.358856,1367.401978 496.070557,1354.553101 
	C495.066162,1352.112915 495.926056,1348.547119 496.795563,1345.773315 
	C498.287781,1341.013550 500.465485,1336.468628 502.300659,1331.967773 
	C375.156738,1254.177490 287.536530,1145.551514 240.085678,1004.427551 
	C237.535706,1004.874390 235.003998,1005.290527 232.483231,1005.764954 
	C225.620773,1007.056335 218.883057,1008.003784 212.645050,1003.369507 
	C210.587326,1001.840881 207.934265,1001.116272 205.559418,1000.011169 
	C196.190338,995.651245 187.050583,999.389221 178.228149,1001.564758 
	C150.612701,1008.374329 123.899567,1018.015320 97.689491,1029.056396 
	C79.841362,1036.574951 61.673115,1042.906616 41.841434,1040.953613 
	C29.453184,1039.733521 18.583115,1034.692505 11.132284,1024.642334 
	C6.801930,1018.801331 4.315911,1011.593079 1.000000,1005.000000 
	C1.000000,999.977905 1.000000,994.955811 1.344577,989.298706 
	C4.478609,975.440369 11.826187,965.246460 23.048271,958.059448 
	C38.170944,948.374329 55.583012,946.664185 72.854630,945.078918 
	C87.965279,943.692017 103.196884,943.509705 118.267151,941.828186 
	C133.049118,940.178772 147.745163,937.582214 162.384064,934.886230 
	C173.226730,932.889343 184.573563,930.704895 190.892334,920.357422 
	C196.083939,911.855835 203.648270,908.322083 212.722534,906.680359 
	C216.451706,906.005737 217.484940,903.770752 217.006271,900.323059 
	C216.577225,897.232849 216.227158,894.129761 215.924286,891.024292 
	C214.599762,877.442749 212.437134,863.873779 212.196274,850.271545 
	C211.802109,828.013245 212.386795,805.723633 213.108383,783.465027 
	C213.508118,771.134766 214.387070,758.746765 216.184128,746.551941 
	C218.971283,727.638306 221.958191,708.691223 226.225555,690.071228 
	C236.440750,645.498718 251.398499,602.453735 271.989288,561.598816 
	C283.429443,538.899963 296.490295,517.018066 309.103485,494.257751 
	C306.133423,491.670074 302.294464,488.744232 299.005737,485.293915 
	C297.197388,483.396667 295.443817,480.714630 295.163025,478.217987 
	C293.785004,465.965118 288.949921,456.019989 278.487000,448.896210 
	C262.665009,438.123718 247.342712,426.596069 231.285797,416.195618 
	C213.461304,404.650238 194.778076,394.427917 176.989258,382.831085 
	C164.918884,374.962250 155.782837,364.153076 152.330872,349.612732 
	C148.508652,333.512817 151.132233,318.469086 163.081299,306.720551 
	C175.150879,294.853516 190.321930,291.656097 206.859512,295.404541 
	C221.548416,298.734009 232.810440,307.960663 243.158585,317.958191 
	C253.716034,328.157959 262.852478,339.811554 273.057220,350.398560 
	C282.157715,359.840027 291.613007,368.978455 301.381927,377.725464 
	C310.680542,386.051270 320.271637,394.133545 330.366760,401.449982 
	C335.072845,404.860718 341.160278,406.537384 347.484314,405.069550 
	C354.388367,403.467102 360.465881,404.891571 365.702789,410.044891 
	C367.832642,412.140717 370.738708,413.447815 373.460876,415.224243 
	C423.646729,362.236389 481.369385,320.002686 546.879761,288.676514 
	C612.062988,257.506866 680.855530,239.058472 752.999695,233.120651 
	C752.999695,230.040817 752.844604,227.871902 753.028503,225.732147 
	C753.597046,219.117218 753.988037,212.960922 759.540527,207.486908 
	C765.984253,201.134201 769.247986,192.703552 769.132263,182.986038 
	C768.929260,165.939346 768.661133,148.952942 766.091248,132.041702 
	C764.611572,122.305008 764.384460,112.368309 762.721497,102.671181 
	C759.444580,83.561798 755.371521,64.643196 757.867737,44.983402 
	C759.307800,33.641880 763.584839,24.008959 770.983582,15.454984 
	C777.694275,7.696434 786.617920,4.009056 796.000000,1.000000 
	C800.689270,1.000000 805.378479,1.000000 810.703674,1.345644 
	C824.513794,4.234727 834.162842,11.630298 841.429260,22.777061 
	C848.811523,34.101612 849.326965,46.921597 849.833984,59.635498 
	C850.106506,66.470482 848.875854,73.400215 847.968750,80.240158 
	C846.074158,94.525948 843.758118,108.757217 841.967041,123.054947 
	C840.395325,135.602280 839.002441,148.188416 838.108398,160.798370 
	C837.532410,168.923019 838.167358,177.126022 837.955261,185.285995 
	C837.722168,194.255524 841.073730,201.690445 847.364441,207.739883 
	C851.116211,211.347733 853.861450,214.846664 853.145081,220.548920 
	C852.725281,223.890030 853.453674,227.448898 854.133606,230.815277 
	C854.375854,232.014847 855.861938,233.628494 857.015259,233.854630 
	C860.548401,234.547440 864.209595,234.549789 867.795654,235.015793 
	C880.635620,236.684280 893.588318,237.807907 906.268188,240.306015 
	C923.060913,243.614410 939.674866,247.869324 956.298645,251.987946 
	C990.991394,260.583221 1024.202026,273.399994 1056.293945,288.917236 
	C1074.552612,297.745728 1092.197632,307.903961 1109.793335,318.029358 
	C1139.283691,334.999664 1166.334961,355.471680 1192.014160,377.690735 
	C1204.664551,388.636566 1216.536377,400.495361 1228.527344,412.180206 
	C1231.210571,414.794952 1233.073242,415.316956 1235.833252,412.723206 
	C1243.711792,405.319427 1252.980103,402.981384 1263.780884,403.695587 
	C1268.406982,404.001495 1274.030273,402.045715 1277.848877,399.262939 
	C1287.924805,391.919861 1297.872925,384.185608 1306.757690,375.471039 
	C1322.510254,360.020050 1337.280518,343.572968 1352.778931,327.855377 
	C1360.316772,320.210846 1368.280396,312.920197 1376.566284,306.094574 
	C1389.919556,295.094513 1405.568848,290.211121 1422.455444,294.427246 
	C1454.713135,302.480988 1463.703125,335.793823 1448.684448,362.026367 
	C1442.103149,373.521698 1431.987305,380.984161 1421.515625,387.925201 
	C1411.172607,394.780914 1399.604370,399.777954 1389.198120,406.550049 
	C1368.375732,420.100586 1347.706055,433.925232 1327.536133,448.420044 
	C1318.835205,454.672821 1311.332397,462.674042 1311.874756,475.024597 
	C1311.982178,477.470123 1311.358276,480.641998 1309.813843,482.323944 
	C1306.397217,486.044861 1302.196289,489.049896 1298.284180,492.309784 
	C1296.292847,493.969116 1295.525879,495.188202 1297.306885,498.037262 
	C1306.667725,513.012390 1316.333984,527.862671 1324.596069,543.444641 
	C1342.242432,576.724548 1357.365601,611.112244 1368.244141,647.317749 
	C1375.488159,671.427246 1382.383789,695.602661 1385.932983,720.536499 
	C1389.399170,744.887207 1393.353638,769.289795 1394.626709,793.797729 
	C1395.952271,819.312866 1394.531982,844.986511 1393.870483,870.579468 
	C1393.663696,878.575928 1392.124146,886.549500 1391.011597,894.508057 
	C1389.625244,904.425964 1389.565063,904.333740 1399.939453,907.099915 
	C1405.107788,908.477966 1409.642212,910.239929 1412.642578,915.743347 
	C1416.189453,922.248718 1421.695190,927.900513 1429.188599,929.809265 
	C1440.561646,932.706116 1452.083496,935.290527 1463.694946,936.918213 
	C1483.678833,939.719543 1503.732666,942.402527 1523.849854,943.731689 
	C1536.362671,944.558533 1548.770264,945.324036 1561.028564,948.000732 
	C1573.093628,950.635193 1584.085815,955.216919 1592.881104,964.320557 
	C1599.654053,971.330811 1603.332764,979.868103 1606.000000,989.000000 
	C1606.000000,993.689270 1606.000000,998.378479 1605.654419,1003.703552 
	C1602.179443,1023.403931 1583.894897,1038.160156 1565.096069,1039.918335 
	C1551.645508,1041.176270 1538.472900,1038.892822 1525.818970,1034.337524 
	C1499.420044,1024.834473 1473.251709,1014.673767 1446.723022,1005.556213 
	C1435.514526,1001.704041 1423.710205,999.416016 1412.033569,997.157104 
	C1404.731079,995.744385 1398.112671,999.059875 1392.327515,1003.298645 
	C1388.244873,1006.289917 1384.300903,1006.713867 1379.569824,1005.384644 
	C1375.740356,1004.308655 1371.673828,1004.077026 1367.606079,1003.454590 
	C1358.856689,1031.564209 1347.894287,1058.304932 1335.209717,1084.305420 
	C1320.110718,1115.255127 1302.819580,1145.005127 1281.879028,1172.363159 
	C1266.707886,1192.183594 1250.651733,1211.381470 1234.108521,1230.077026 
	C1223.678101,1241.864258 1211.879639,1252.495483 1200.221313,1263.125977 
	C1189.036499,1273.324707 1177.790405,1283.607666 1165.585449,1292.500732 
	C1147.104248,1305.966919 1127.782104,1318.280518 1108.780518,1331.028931 
	C1106.355347,1332.655884 1105.446655,1334.210083 1106.948486,1337.155762 
	C1108.944824,1341.070923 1110.558350,1345.209106 1111.985352,1349.371826 
	C1112.492310,1350.850586 1112.459961,1352.895020 1111.838501,1354.315918 
	C1108.471680,1362.013794 1105.810669,1369.905029 1109.605835,1378.012085 
	C1115.562988,1390.737305 1121.395874,1403.603516 1128.520020,1415.679443 
	C1137.813843,1431.433716 1148.100708,1446.620728 1158.361328,1461.780518 
	C1168.189697,1476.301514 1178.516968,1490.549072 1183.244873,1507.728149 
	C1188.127930,1525.471069 1184.442871,1546.541626 1167.880615,1559.776001 
	C1154.283447,1570.640991 1131.743408,1569.956421 1118.237183,1561.950806 
	C1104.188599,1553.623535 1096.616455,1540.662476 1091.138794,1526.301636 
	C1086.385620,1513.840820 1083.367676,1500.727417 1078.863403,1488.160278 
	C1071.045288,1466.347412 1062.988037,1444.607544 1054.414673,1423.082642 
	C1049.081421,1409.692627 1041.400146,1398.073853 1025.639771,1394.873535 
	C1024.086182,1394.558105 1022.568481,1392.599365 1021.620728,1391.045776 
	C1018.907715,1386.598145 1016.496704,1381.966431 1013.955383,1377.386230 
	C873.804932,1428.048706 733.971741,1427.889404 594.036011,1376.230835 
	C591.277710,1381.381592 588.748596,1386.505493 585.801514,1391.376709 
	C584.854370,1392.942017 582.978577,1394.424194 581.229797,1394.945923 
	C572.135498,1397.658813 564.085693,1401.629639 559.694031,1410.691040 
	C555.002197,1420.371948 549.694031,1429.813843 545.792358,1439.804443 
	C539.383911,1456.213623 533.323792,1472.807129 528.172119,1489.645630 
	C522.769897,1507.303223 518.506348,1525.269409 509.239685,1541.532227 
	C505.017120,1548.942871 500.006927,1555.626587 492.713257,1559.910767 
	C486.504761,1563.557861 479.597900,1566.015991 473.000000,1569.000000 
M1158.500000,1074.838989 
	C1182.596558,1074.838989 1206.692993,1074.838989 1230.852539,1074.838989 
	C1230.852539,1012.169006 1230.852539,950.254761 1230.852539,888.112671 
	C945.828125,888.112671 661.119568,888.112671 376.248383,888.112671 
	C376.248383,950.411316 376.248383,1012.428284 376.248383,1074.838867 
	C636.943176,1074.838867 897.221619,1074.838867 1158.500000,1074.838989 
M375.833923,566.500000 
	C375.833923,610.254761 375.833923,654.009521 375.833923,697.834717 
	C661.274963,697.834717 945.982239,697.834717 1230.887695,697.834717 
	C1230.887695,635.595337 1230.887695,573.687439 1230.887695,511.604248 
	C945.793518,511.604248 660.977844,511.604248 375.833893,511.604248 
	C375.833893,529.862427 375.833893,547.681213 375.833923,566.500000 
M842.500000,1153.000122 
	C834.671631,1153.000122 826.843262,1153.000122 819.014893,1153.000122 
	C786.536255,1153.000244 754.057495,1152.964844 721.579346,1153.097046 
	C719.812805,1153.104248 717.169617,1154.015259 716.422119,1155.342896 
	C707.031250,1172.023438 697.973450,1188.890747 688.706482,1205.641724 
	C683.004333,1215.948853 676.996887,1226.087036 671.296570,1236.394897 
	C665.209167,1247.402832 659.321838,1258.521606 653.269836,1269.735229 
	C753.616638,1303.140869 853.746582,1302.482544 954.506287,1270.051636 
	C946.640869,1255.659180 939.268677,1242.001587 931.740540,1228.430664 
	C918.563354,1204.676392 905.166443,1181.042358 892.197205,1157.175781 
	C890.347778,1153.772217 888.471741,1152.895752 884.971985,1152.935547 
	C871.149536,1153.093018 857.324219,1153.000244 842.500000,1153.000122 
M690.749023,365.099548 
	C690.150696,365.376526 689.579041,365.769257 688.950256,365.913849 
	C659.731995,372.631409 631.418762,382.247803 604.574402,395.424530 
	C583.016113,406.006592 562.341858,418.414581 541.465881,430.345764 
	C535.576050,433.711975 530.357056,438.251801 524.379822,442.579529 
	C597.146118,442.579529 668.982605,442.579529 740.852966,442.579529 
	C742.530396,413.221130 744.183960,384.279388 745.889404,354.430481 
	C727.407471,358.033386 709.497620,361.524750 690.749023,365.099548 
M1028.978882,409.481354 
	C1001.388062,395.092651 973.137695,382.264496 943.326294,373.094391 
	C916.511169,364.845947 889.272278,358.611267 861.005371,355.335052 
	C861.005371,356.885406 860.924255,358.206085 861.017822,359.514282 
	C861.992859,373.151398 863.114441,386.779266 863.949585,400.424774 
	C864.505615,409.510345 864.567627,418.625244 865.038513,427.717285 
	C865.299377,432.755463 865.946472,437.773651 866.420105,442.807129 
	C937.823730,442.807129 1008.864258,442.807129 1079.904785,442.807129 
	C1080.150513,442.352203 1080.396362,441.897308 1080.642090,441.442383 
	C1063.626099,430.932434 1046.610107,420.422455 1028.978882,409.481354 
M624.341125,847.964417 
	C634.343567,842.569092 640.242859,834.022583 643.073425,823.236206 
	C646.105713,811.681274 645.789307,800.097412 642.381714,788.699768 
	C637.024536,770.781555 624.403015,761.914612 605.708923,763.018860 
	C600.864868,763.304932 596.083618,764.652344 590.833862,765.590820 
	C590.833862,751.646301 590.833862,737.864868 590.833862,723.611450 
	C583.795593,724.779480 577.269897,726.070435 570.684326,726.864014 
	C567.586182,727.237366 566.945068,728.547974 566.950317,731.360107 
	C567.021362,769.193115 567.034119,807.026428 566.929443,844.859253 
	C566.921082,847.887268 568.067810,849.075012 570.813049,849.372131 
	C582.199524,850.604736 593.571289,852.628723 604.972717,852.807373 
	C611.176636,852.904480 617.429382,849.883728 624.341125,847.964417 
M382.996918,737.546509 
	C382.996918,775.285645 382.996918,813.024719 382.996918,850.712646 
	C391.376068,850.712646 398.970703,850.712646 407.112305,850.712646 
	C407.112305,838.572266 407.112305,826.711060 407.112305,814.849854 
	C407.489136,814.656433 407.865997,814.463074 408.242828,814.269714 
	C410.106110,816.322021 412.184631,818.219299 413.794983,820.453857 
	C420.308990,829.493408 426.650177,838.657288 433.135254,847.717957 
	C434.030579,848.968872 435.346405,850.795227 436.516266,850.832642 
	C444.915436,851.101318 453.327179,850.976379 462.574860,850.976379 
	C453.220245,832.517944 441.427612,816.978516 428.071960,802.732666 
	C439.162598,790.283081 450.139679,777.960999 461.116760,765.638855 
	C453.771942,764.473389 447.118622,764.875549 440.539642,764.348755 
	C435.082581,763.911804 431.698822,765.934814 428.435364,770.120544 
	C421.938049,778.454163 414.879272,786.350037 408.052490,794.426697 
	C407.656494,794.279968 407.260498,794.133179 406.864502,793.986389 
	C406.864502,770.671021 406.864502,747.355591 406.864502,723.979919 
	C405.700165,723.979919 405.195190,723.914673 404.712219,723.990234 
	C400.438171,724.658447 396.173004,725.384155 391.895813,726.030945 
	C382.999359,727.376160 382.997009,727.360535 382.996918,737.546509 
M665.065735,782.675354 
	C657.754883,796.743591 657.270996,811.395020 661.708069,826.311279 
	C664.869263,836.938049 671.647278,844.737183 681.861450,849.127563 
	C698.083435,856.100403 714.405334,853.954834 730.605286,848.874756 
	C731.510315,848.590942 732.582886,846.655945 732.455811,845.628296 
	C731.744507,839.876892 730.687988,834.168213 729.699585,828.140625 
	C727.792664,828.711548 726.236633,829.231323 724.652527,829.642761 
	C715.540039,832.009216 706.342590,833.362061 697.043884,830.906799 
	C689.284058,828.857910 684.471863,823.205627 684.266907,815.894592 
	C701.852417,815.894592 719.430115,815.894592 736.925842,815.894592 
	C740.503723,791.529907 732.586060,771.988098 715.219299,765.060547 
	C696.456726,757.576355 676.264587,764.445557 665.065735,782.675354 
M1085.956055,772.441223 
	C1070.885986,788.036865 1069.259399,806.555847 1074.749268,826.310974 
	C1077.987183,837.963135 1085.849976,845.985840 1097.157349,850.118835 
	C1112.539429,855.741089 1127.946777,853.832886 1143.149536,849.037903 
	C1144.209595,848.703552 1145.554199,846.692505 1145.430542,845.614380 
	C1144.770264,839.859253 1143.684692,834.152954 1142.697998,828.135498 
	C1140.778198,828.712463 1139.221558,829.236328 1137.635864,829.647766 
	C1128.521973,832.012146 1119.322998,833.363098 1110.024902,830.902710 
	C1102.261597,828.848511 1097.437378,823.161194 1097.290283,815.880127 
	C1114.869751,815.880127 1132.445190,815.880127 1149.934570,815.880127 
	C1153.108765,795.007019 1147.356934,775.955933 1133.114868,767.474243 
	C1118.999023,759.067627 1100.178833,760.812073 1085.956055,772.441223 
M967.499695,764.848389 
	C942.557678,756.589233 919.898926,768.887085 913.612549,794.289490 
	C910.960449,805.006226 911.334778,815.757874 914.675415,826.323853 
	C918.018066,836.896606 924.648376,844.737488 934.861389,849.127502 
	C951.081604,856.099548 967.402100,853.955444 983.600769,848.876526 
	C984.507202,848.592285 985.583740,846.659851 985.456848,845.633545 
	C984.745850,839.882446 983.689148,834.174072 982.700012,828.143127 
	C980.792908,828.713074 979.240112,829.229980 977.659607,829.640625 
	C968.548279,832.007690 959.352295,833.361328 950.053711,830.908875 
	C942.296387,828.862915 937.492004,823.231140 937.253540,815.904175 
	C954.841675,815.904175 972.420654,815.904175 990.837036,815.904175 
	C990.837036,811.303406 991.031311,807.166504 990.802917,803.053101 
	C989.883911,786.502686 984.904907,772.297363 967.499695,764.848389 
M893.882446,786.769836 
	C889.293335,770.910767 879.831970,762.862122 863.586731,763.042603 
	C851.680603,763.174866 839.792542,765.076233 827.900146,766.227478 
	C824.189392,766.586731 822.847168,768.398926 822.883301,772.413452 
	C823.103333,796.897949 822.988647,821.385376 823.003601,845.871826 
	C823.004578,847.474854 823.155579,849.077698 823.232483,850.596985 
	C831.387939,850.596985 839.100952,850.596985 847.006775,850.596985 
	C847.006775,848.029602 847.006775,845.871399 847.006775,843.713135 
	C847.007019,825.389954 846.962891,807.066467 847.090088,788.744141 
	C847.100403,787.251404 847.925232,784.812622 848.970215,784.424255 
	C860.857605,780.005981 870.488525,785.938171 870.994202,798.548157 
	C871.614441,814.013550 871.350220,829.514587 871.464111,845.000183 
	C871.478149,846.910278 871.465942,848.820435 871.465942,850.683472 
	C879.900574,850.683472 887.480591,850.683472 895.534180,850.683472 
	C895.534180,836.901001 895.703674,823.433655 895.467285,809.973450 
	C895.336182,802.509155 894.526611,795.056702 893.882446,786.769836 
M515.395264,853.000061 
	C523.771973,851.750549 532.134094,850.387634 540.532227,849.304016 
	C544.192688,848.831726 544.942261,846.995178 544.917969,843.593506 
	C544.771729,823.116821 544.845459,802.638428 544.845581,782.160645 
	C544.845642,776.516602 544.845642,770.872559 544.845642,764.848755 
	C536.751648,764.848755 529.025696,764.848755 520.825195,764.848755 
	C520.825195,766.893372 520.825256,768.699463 520.825256,770.505615 
	C520.825073,789.152039 520.875061,807.798889 520.736572,826.444275 
	C520.724487,828.075684 519.707825,830.958008 518.763000,831.133423 
	C506.507690,833.408752 497.666443,832.104553 496.960938,818.640808 
	C496.143402,803.039307 496.386444,787.382141 496.179047,771.748962 
	C496.149048,769.485962 496.174866,767.222229 496.174866,764.966431 
	C487.788910,764.966431 480.103882,764.966431 472.256500,764.966431 
	C472.256500,782.936218 472.148163,800.405762 472.339142,817.872070 
	C472.382324,821.821167 473.179291,825.829285 474.124573,829.688904 
	C477.207520,842.276794 485.192017,849.981445 498.029449,852.027222 
	C503.409607,852.884583 508.954041,852.711121 515.395264,853.000061 
M1049.907715,1198.580811 
	C1052.840454,1205.643066 1055.773071,1212.705322 1058.834351,1220.077148 
	C1088.895630,1200.754395 1115.899536,1178.706543 1141.288330,1153.189697 
	C1103.920044,1153.189697 1067.813843,1153.189697 1031.219971,1153.189697 
	C1037.388306,1168.328369 1043.421997,1183.136230 1049.907715,1198.580811 
M1192.923218,793.619934 
	C1188.125122,788.324585 1189.343750,784.066345 1196.279175,782.796326 
	C1199.332886,782.237122 1202.601196,782.159363 1205.677490,782.570862 
	C1210.707642,783.243530 1215.660522,784.495056 1221.004150,785.574829 
	C1222.349731,779.398315 1223.682495,773.280396 1225.098145,766.781860 
	C1212.434937,762.548218 1199.946167,760.609497 1187.111206,763.697632 
	C1174.344482,766.769470 1167.426025,774.588745 1166.244873,786.658081 
	C1165.084473,798.515625 1170.619751,807.818726 1182.274536,813.346313 
	C1185.874512,815.053772 1189.643555,816.401550 1193.272949,818.050903 
	C1196.142090,819.354736 1199.260132,820.457703 1201.613770,822.430054 
	C1203.236206,823.789612 1204.855469,826.748108 1204.435303,828.503845 
	C1204.010986,830.276978 1201.209961,831.712891 1199.179321,832.782898 
	C1197.972534,833.418823 1196.213135,833.300415 1194.754028,833.114502 
	C1185.942505,831.991943 1177.145996,830.751953 1167.821655,829.479980 
	C1166.726807,834.895691 1165.420288,841.358154 1164.008545,848.340515 
	C1167.591309,849.418579 1170.843384,850.668030 1174.209961,851.362976 
	C1188.261597,854.263855 1202.275513,855.106506 1215.772095,848.942078 
	C1222.532227,845.854370 1226.777466,840.574463 1228.165039,833.107788 
	C1230.871216,818.545715 1226.067627,809.067627 1212.208740,802.360046 
	C1206.083618,799.395569 1199.787231,796.785095 1192.923218,793.619934 
M532.476501,1207.988647 
	C537.801819,1211.671753 543.127136,1215.354980 548.929871,1219.368286 
	C558.170166,1196.998779 567.144836,1175.272217 576.233459,1153.270020 
	C539.856934,1153.270020 504.309265,1153.270020 468.038025,1153.270020 
	C469.346100,1154.693848 470.138977,1155.699707 471.072418,1156.551392 
	C482.177795,1166.684937 493.035339,1177.114014 504.512421,1186.808960 
	C513.247498,1194.187622 522.776245,1200.626465 532.476501,1207.988647 
M1060.535645,777.398621 
	C1060.535645,773.285156 1060.535645,769.171692 1060.535645,764.464050 
	C1053.774048,764.464050 1047.659424,764.464172 1041.544800,764.464050 
	C1032.174927,764.463867 1032.174805,764.463806 1032.174683,755.356567 
	C1032.174683,750.072571 1032.174805,744.788574 1032.174805,739.138306 
	C1023.794800,740.550537 1016.135559,741.841309 1008.478516,743.131714 
	C1008.339844,744.197021 1008.181702,744.846619 1008.181335,745.496399 
	C1008.167053,770.147583 1008.111023,794.799011 1008.227295,819.449646 
	C1008.244385,823.081787 1008.908630,826.743530 1009.584290,830.333130 
	C1011.141052,838.604126 1015.059753,845.553284 1022.886047,849.182251 
	C1036.549316,855.517639 1050.239136,853.934631 1064.023804,848.653137 
	C1062.841797,842.117432 1061.755005,836.108948 1060.627930,829.876526 
	C1056.485474,830.627197 1052.783813,831.589294 1049.026123,831.925232 
	C1036.939941,833.005676 1032.411865,828.910583 1032.207153,816.746887 
	C1032.058594,807.921570 1032.162476,799.091736 1032.188232,790.264038 
	C1032.192871,788.675110 1032.365723,787.086731 1032.483154,785.128723 
	C1041.993408,785.128723 1050.950562,785.128723 1060.535400,785.128723 
	C1060.535400,782.600342 1060.535400,780.476379 1060.535645,777.398621 
M755.999084,792.500000 
	C755.999084,811.894653 755.999084,831.289307 755.999084,850.585693 
	C764.411316,850.585693 772.118286,850.585693 780.151489,850.585693 
	C780.151489,828.580383 780.151489,806.988525 780.151489,783.931824 
	C789.196472,784.435059 797.821228,784.914917 806.793457,785.414062 
	C807.747192,780.799316 808.638123,775.744812 809.870483,770.774963 
	C810.767029,767.159119 809.969543,765.508911 806.005493,764.635681 
	C789.882080,761.083862 774.257080,763.041260 758.913574,768.346313 
	C757.615356,768.795166 756.203552,771.056274 756.131226,772.538269 
	C755.823120,778.845886 755.999512,785.177307 755.999084,792.500000 
z"/>
<path fill="#FFFFFF" opacity="1.000000" stroke="none" 
	d="
M1606.000000,988.531372 
	C1603.332764,979.868103 1599.654053,971.330811 1592.881104,964.320557 
	C1584.085815,955.216919 1573.093628,950.635193 1561.028564,948.000732 
	C1548.770264,945.324036 1536.362671,944.558533 1523.849854,943.731689 
	C1503.732666,942.402527 1483.678833,939.719543 1463.694946,936.918213 
	C1452.083496,935.290527 1440.561646,932.706116 1429.188599,929.809265 
	C1421.695190,927.900513 1416.189453,922.248718 1412.642578,915.743347 
	C1409.642212,910.239929 1405.107788,908.477966 1399.939453,907.099915 
	C1389.565063,904.333740 1389.625244,904.425964 1391.011597,894.508057 
	C1392.124146,886.549500 1393.663696,878.575928 1393.870483,870.579468 
	C1394.531982,844.986511 1395.952271,819.312866 1394.626709,793.797729 
	C1393.353638,769.289795 1389.399170,744.887207 1385.932983,720.536499 
	C1382.383789,695.602661 1375.488159,671.427246 1368.244141,647.317749 
	C1357.365601,611.112244 1342.242432,576.724548 1324.596069,543.444641 
	C1316.333984,527.862671 1306.667725,513.012390 1297.306885,498.037262 
	C1295.525879,495.188202 1296.292847,493.969116 1298.284180,492.309784 
	C1302.196289,489.049896 1306.397217,486.044861 1309.813843,482.323944 
	C1311.358276,480.641998 1311.982178,477.470123 1311.874756,475.024597 
	C1311.332397,462.674042 1318.835205,454.672821 1327.536133,448.420044 
	C1347.706055,433.925232 1368.375732,420.100586 1389.198120,406.550049 
	C1399.604370,399.777954 1411.172607,394.780914 1421.515625,387.925201 
	C1431.987305,380.984161 1442.103149,373.521698 1448.684448,362.026367 
	C1463.703125,335.793823 1454.713135,302.480988 1422.455444,294.427246 
	C1405.568848,290.211121 1389.919556,295.094513 1376.566284,306.094574 
	C1368.280396,312.920197 1360.316772,320.210846 1352.778931,327.855377 
	C1337.280518,343.572968 1322.510254,360.020050 1306.757690,375.471039 
	C1297.872925,384.185608 1287.924805,391.919861 1277.848877,399.262939 
	C1274.030273,402.045715 1268.406982,404.001495 1263.780884,403.695587 
	C1252.980103,402.981384 1243.711792,405.319427 1235.833252,412.723206 
	C1233.073242,415.316956 1231.210571,414.794952 1228.527344,412.180206 
	C1216.536377,400.495361 1204.664551,388.636566 1192.014160,377.690735 
	C1166.334961,355.471680 1139.283691,334.999664 1109.793335,318.029358 
	C1092.197632,307.903961 1074.552612,297.745728 1056.293945,288.917236 
	C1024.202026,273.399994 990.991394,260.583221 956.298645,251.987946 
	C939.674866,247.869324 923.060913,243.614410 906.268188,240.306015 
	C893.588318,237.807907 880.635620,236.684280 867.795654,235.015793 
	C864.209595,234.549789 860.548401,234.547440 857.015259,233.854630 
	C855.861938,233.628494 854.375854,232.014847 854.133606,230.815277 
	C853.453674,227.448898 852.725281,223.890030 853.145081,220.548920 
	C853.861450,214.846664 851.116211,211.347733 847.364441,207.739883 
	C841.073730,201.690445 837.722168,194.255524 837.955261,185.285995 
	C838.167358,177.126022 837.532410,168.923019 838.108398,160.798370 
	C839.002441,148.188416 840.395325,135.602280 841.967041,123.054947 
	C843.758118,108.757217 846.074158,94.525948 847.968750,80.240158 
	C848.875854,73.400215 850.106506,66.470482 849.833984,59.635498 
	C849.326965,46.921597 848.811523,34.101612 841.429260,22.777061 
	C834.162842,11.630298 824.513794,4.234727 811.169800,1.345644 
	C1075.934937,1.000000 1340.869995,1.000000 1606.000000,1.000000 
	C1606.000000,330.020874 1606.000000,659.041748 1606.000000,988.531372 
z"/>
<path fill="#FFFFFF" opacity="1.000000" stroke="none" 
	d="
M795.531372,1.000000 
	C786.617920,4.009056 777.694275,7.696434 770.983582,15.454984 
	C763.584839,24.008959 759.307800,33.641880 757.867737,44.983402 
	C755.371521,64.643196 759.444580,83.561798 762.721497,102.671181 
	C764.384460,112.368309 764.611572,122.305008 766.091248,132.041702 
	C768.661133,148.952942 768.929260,165.939346 769.132263,182.986038 
	C769.247986,192.703552 765.984253,201.134201 759.540527,207.486908 
	C753.988037,212.960922 753.597046,219.117218 753.028503,225.732147 
	C752.844604,227.871902 752.999695,230.040817 752.999695,233.120651 
	C680.855530,239.058472 612.062988,257.506866 546.879761,288.676514 
	C481.369385,320.002686 423.646729,362.236389 373.460876,415.224243 
	C370.738708,413.447815 367.832642,412.140717 365.702789,410.044891 
	C360.465881,404.891571 354.388367,403.467102 347.484314,405.069550 
	C341.160278,406.537384 335.072845,404.860718 330.366760,401.449982 
	C320.271637,394.133545 310.680542,386.051270 301.381927,377.725464 
	C291.613007,368.978455 282.157715,359.840027 273.057220,350.398560 
	C262.852478,339.811554 253.716034,328.157959 243.158585,317.958191 
	C232.810440,307.960663 221.548416,298.734009 206.859512,295.404541 
	C190.321930,291.656097 175.150879,294.853516 163.081299,306.720551 
	C151.132233,318.469086 148.508652,333.512817 152.330872,349.612732 
	C155.782837,364.153076 164.918884,374.962250 176.989258,382.831085 
	C194.778076,394.427917 213.461304,404.650238 231.285797,416.195618 
	C247.342712,426.596069 262.665009,438.123718 278.487000,448.896210 
	C288.949921,456.019989 293.785004,465.965118 295.163025,478.217987 
	C295.443817,480.714630 297.197388,483.396667 299.005737,485.293915 
	C302.294464,488.744232 306.133423,491.670074 309.103485,494.257751 
	C296.490295,517.018066 283.429443,538.899963 271.989288,561.598816 
	C251.398499,602.453735 236.440750,645.498718 226.225555,690.071228 
	C221.958191,708.691223 218.971283,727.638306 216.184128,746.551941 
	C214.387070,758.746765 213.508118,771.134766 213.108383,783.465027 
	C212.386795,805.723633 211.802109,828.013245 212.196274,850.271545 
	C212.437134,863.873779 214.599762,877.442749 215.924286,891.024292 
	C216.227158,894.129761 216.577225,897.232849 217.006271,900.323059 
	C217.484940,903.770752 216.451706,906.005737 212.722534,906.680359 
	C203.648270,908.322083 196.083939,911.855835 190.892334,920.357422 
	C184.573563,930.704895 173.226730,932.889343 162.384064,934.886230 
	C147.745163,937.582214 133.049118,940.178772 118.267151,941.828186 
	C103.196884,943.509705 87.965279,943.692017 72.854630,945.078918 
	C55.583012,946.664185 38.170944,948.374329 23.048271,958.059448 
	C11.826187,965.246460 4.478609,975.440369 1.344577,988.831787 
	C1.000000,659.747437 1.000000,330.494934 1.000000,1.000000 
	C265.687500,1.000000 530.375122,1.000000 795.531372,1.000000 
z"/>
<path fill="#FFFFFF" opacity="1.000000" stroke="none" 
	d="
M473.468658,1569.000000 
	C479.597900,1566.015991 486.504761,1563.557861 492.713257,1559.910767 
	C500.006927,1555.626587 505.017120,1548.942871 509.239685,1541.532227 
	C518.506348,1525.269409 522.769897,1507.303223 528.172119,1489.645630 
	C533.323792,1472.807129 539.383911,1456.213623 545.792358,1439.804443 
	C549.694031,1429.813843 555.002197,1420.371948 559.694031,1410.691040 
	C564.085693,1401.629639 572.135498,1397.658813 581.229797,1394.945923 
	C582.978577,1394.424194 584.854370,1392.942017 585.801514,1391.376709 
	C588.748596,1386.505493 591.277710,1381.381592 594.036011,1376.230835 
	C733.971741,1427.889404 873.804932,1428.048706 1013.955383,1377.386230 
	C1016.496704,1381.966431 1018.907715,1386.598145 1021.620728,1391.045776 
	C1022.568481,1392.599365 1024.086182,1394.558105 1025.639771,1394.873535 
	C1041.400146,1398.073853 1049.081421,1409.692627 1054.414673,1423.082642 
	C1062.988037,1444.607544 1071.045288,1466.347412 1078.863403,1488.160278 
	C1083.367676,1500.727417 1086.385620,1513.840820 1091.138794,1526.301636 
	C1096.616455,1540.662476 1104.188599,1553.623535 1118.237183,1561.950806 
	C1131.743408,1569.956421 1154.283447,1570.640991 1167.880615,1559.776001 
	C1184.442871,1546.541626 1188.127930,1525.471069 1183.244873,1507.728149 
	C1178.516968,1490.549072 1168.189697,1476.301514 1158.361328,1461.780518 
	C1148.100708,1446.620728 1137.813843,1431.433716 1128.520020,1415.679443 
	C1121.395874,1403.603516 1115.562988,1390.737305 1109.605835,1378.012085 
	C1105.810669,1369.905029 1108.471680,1362.013794 1111.838501,1354.315918 
	C1112.459961,1352.895020 1112.492310,1350.850586 1111.985352,1349.371826 
	C1110.558350,1345.209106 1108.944824,1341.070923 1106.948486,1337.155762 
	C1105.446655,1334.210083 1106.355347,1332.655884 1108.780518,1331.028931 
	C1127.782104,1318.280518 1147.104248,1305.966919 1165.585449,1292.500732 
	C1177.790405,1283.607666 1189.036499,1273.324707 1200.221313,1263.125977 
	C1211.879639,1252.495483 1223.678101,1241.864258 1234.108521,1230.077026 
	C1250.651733,1211.381470 1266.707886,1192.183594 1281.879028,1172.363159 
	C1302.819580,1145.005127 1320.110718,1115.255127 1335.209717,1084.305420 
	C1347.894287,1058.304932 1358.856689,1031.564209 1367.606079,1003.454590 
	C1371.673828,1004.077026 1375.740356,1004.308655 1379.569824,1005.384644 
	C1384.300903,1006.713867 1388.244873,1006.289917 1392.327515,1003.298645 
	C1398.112671,999.059875 1404.731079,995.744385 1412.033569,997.157104 
	C1423.710205,999.416016 1435.514526,1001.704041 1446.723022,1005.556213 
	C1473.251709,1014.673767 1499.420044,1024.834473 1525.818970,1034.337524 
	C1538.472900,1038.892822 1551.645508,1041.176270 1565.096069,1039.918335 
	C1583.894897,1038.160156 1602.179443,1023.403931 1605.654419,1004.169678 
	C1606.000000,1192.284790 1606.000000,1380.569702 1606.000000,1569.000000 
	C1228.645752,1569.000000 851.291565,1569.000000 473.468658,1569.000000 
z"/>
<path fill="#FFFFFF" opacity="1.000000" stroke="none" 
	d="
M1.000000,1005.468628 
	C4.315911,1011.593079 6.801930,1018.801331 11.132284,1024.642334 
	C18.583115,1034.692505 29.453184,1039.733521 41.841434,1040.953613 
	C61.673115,1042.906616 79.841362,1036.574951 97.689491,1029.056396 
	C123.899567,1018.015320 150.612701,1008.374329 178.228149,1001.564758 
	C187.050583,999.389221 196.190338,995.651245 205.559418,1000.011169 
	C207.934265,1001.116272 210.587326,1001.840881 212.645050,1003.369507 
	C218.883057,1008.003784 225.620773,1007.056335 232.483231,1005.764954 
	C235.003998,1005.290527 237.535706,1004.874390 240.085678,1004.427551 
	C287.536530,1145.551514 375.156738,1254.177490 502.300659,1331.967773 
	C500.465485,1336.468628 498.287781,1341.013550 496.795563,1345.773315 
	C495.926056,1348.547119 495.066162,1352.112915 496.070557,1354.553101 
	C501.358856,1367.401978 499.067017,1379.338135 492.562469,1390.828613 
	C483.536011,1406.774048 474.641693,1422.817139 464.953217,1438.358521 
	C455.789154,1453.058228 445.153992,1466.847534 436.126434,1481.624146 
	C427.719208,1495.385620 420.617432,1509.945557 422.008575,1526.921875 
	C423.701691,1547.582520 437.187073,1565.174561 457.822571,1568.649902 
	C305.731934,1569.000000 153.463882,1569.000000 1.000000,1569.000000 
	C1.000000,1381.312500 1.000000,1193.624878 1.000000,1005.468628 
z"/>
<path fill="#FEFEFF" opacity="1.000000" stroke="none" 
	d="
M1158.000000,1074.838867 
	C897.221619,1074.838867 636.943176,1074.838867 376.248383,1074.838867 
	C376.248383,1012.428284 376.248383,950.411316 376.248383,888.112671 
	C661.119568,888.112671 945.828125,888.112671 1230.852539,888.112671 
	C1230.852539,950.254761 1230.852539,1012.169006 1230.852539,1074.838989 
	C1206.692993,1074.838989 1182.596558,1074.838989 1158.000000,1074.838867 
M610.571655,992.500427 
	C610.571655,998.904968 610.571655,1005.309448 610.571655,1011.650024 
	C615.548035,1011.650024 619.616394,1011.650024 623.689331,1011.650024 
	C623.689331,991.217041 623.689331,971.137024 623.689331,951.107971 
	C610.557373,949.084961 609.964539,949.358826 603.420959,959.968201 
	C600.171570,965.236633 596.884094,970.481628 593.206604,976.391663 
	C588.152039,968.296265 583.719299,961.088440 579.145813,953.970947 
	C578.312073,952.673401 576.982300,950.912781 575.747314,950.796936 
	C571.534607,950.401855 567.261963,950.645630 562.958374,950.645630 
	C562.958374,971.495056 562.958374,991.542236 562.958374,1011.598816 
	C567.396912,1011.598816 571.439575,1011.598816 575.997925,1011.598816 
	C575.997925,998.846313 575.997925,986.487793 575.997925,972.700256 
	C582.107361,981.845032 587.392456,989.755859 593.033386,998.199402 
	C598.792786,989.556396 604.110046,981.576965 609.427307,973.597534 
	C609.808716,973.771423 610.190063,973.945312 610.571411,974.119263 
	C610.571411,979.913208 610.571411,985.707214 610.571655,992.500427 
M668.570190,997.496338 
	C668.570190,1002.232666 668.570190,1006.968994 668.570190,1011.726501 
	C673.406982,1011.726501 677.335327,1011.726501 682.010864,1011.726501 
	C682.010864,999.166809 682.010864,986.861206 682.010864,973.181396 
	C690.935974,984.889832 699.403625,995.012024 706.689209,1005.923523 
	C711.099182,1012.528015 716.364075,1012.661682 722.850342,1011.569702 
	C722.850342,991.271606 722.850342,971.196289 722.850342,950.922852 
	C718.461060,950.922852 714.405579,950.922852 709.697632,950.922852 
	C709.697632,963.084045 709.697632,974.907959 709.697632,988.207764 
	C700.876831,976.635437 693.027039,966.319824 685.157471,956.019287 
	C680.607178,950.063293 676.564514,948.965027 668.569946,951.668823 
	C668.569946,966.529114 668.569946,981.513062 668.570190,997.496338 
M1063.737793,961.270386 
	C1053.488159,974.920715 1054.644409,993.329224 1066.440918,1004.306213 
	C1078.787231,1015.794739 1099.017700,1016.025818 1111.576050,1004.821899 
	C1124.980835,992.862793 1125.723633,971.584961 1113.181152,958.842651 
	C1100.030884,945.482788 1076.956665,946.362976 1063.737793,961.270386 
M888.375854,1012.002014 
	C889.811096,1011.901184 891.246338,1011.800354 893.160278,1011.665833 
	C893.160278,1005.094055 893.160278,998.854431 893.160278,992.760376 
	C899.905090,991.058594 904.862244,991.989319 907.956848,998.573669 
	C909.776611,1002.445740 912.548340,1005.892761 915.080933,1009.394287 
	C915.870911,1010.486694 917.235168,1011.786804 918.411926,1011.865417 
	C922.791809,1012.158081 927.203003,1011.982178 932.512146,1011.982178 
	C927.277222,1004.213684 922.610413,997.288391 917.835632,990.202759 
	C919.294861,989.369568 920.307800,988.831909 921.280457,988.229248 
	C928.646606,983.665588 931.955505,976.099426 930.478516,967.234741 
	C929.052246,958.674500 924.093994,952.277771 915.413696,951.514221 
	C903.763306,950.489502 891.954956,951.260376 880.029480,951.260376 
	C880.029480,971.406860 880.029480,991.552368 880.029480,1012.002136 
	C882.797485,1012.002136 885.108765,1012.002136 888.375854,1012.002014 
M1185.814209,969.731689 
	C1184.324585,958.973877 1179.878662,952.449219 1170.427856,951.533752 
	C1158.791260,950.406555 1146.962280,951.264587 1134.893311,951.264587 
	C1134.893311,971.306274 1134.893311,991.357117 1134.893311,1011.637573 
	C1139.309204,1011.637573 1143.507324,1011.637573 1148.215332,1011.637573 
	C1148.215332,1005.039001 1148.215332,998.798645 1148.215332,992.697510 
	C1154.969482,991.104492 1159.926392,992.095337 1163.005493,998.647888 
	C1164.825928,1002.521912 1167.591553,1005.975586 1170.131470,1009.473572 
	C1170.917236,1010.555542 1172.317749,1011.793335 1173.508057,1011.871216 
	C1177.871582,1012.156921 1182.265015,1011.984497 1187.557373,1011.984497 
	C1182.296753,1004.231384 1177.656860,997.393066 1173.024658,990.566101 
	C1183.737793,982.622498 1185.254639,980.234375 1185.814209,969.731689 
M508.497070,1012.001343 
	C512.327637,1011.985168 516.167053,1012.132507 519.987183,1011.924438 
	C535.924255,1011.056091 548.448425,999.719910 549.953674,984.928650 
	C551.614929,968.604614 542.595642,954.641907 526.337769,951.838989 
	C515.914795,950.041992 504.930328,951.502075 493.882263,951.502075 
	C493.882263,971.334717 493.882263,991.387695 493.882263,1012.001282 
	C498.595184,1012.001282 503.048859,1012.001282 508.497070,1012.001343 
M479.262329,1012.004089 
	C480.713501,1012.004089 482.164673,1012.004089 484.012634,1012.004089 
	C483.649689,1010.738098 483.508514,1009.941895 483.200653,1009.216431 
	C475.344360,990.703552 467.286926,972.272705 459.716370,953.643921 
	C457.553223,948.321167 453.609802,950.496460 450.198456,950.009277 
	C447.133148,949.571411 445.186768,950.351929 443.800812,953.720886 
	C436.340302,971.856018 428.534851,989.849182 420.875244,1007.902710 
	C420.382935,1009.063110 420.115875,1010.319031 419.720490,1011.607300 
	C432.344299,1013.005066 432.438690,1013.043335 436.987457,1001.822571 
	C438.102997,999.070862 439.539886,997.997009 442.505035,998.124023 
	C447.654236,998.344666 452.867096,998.619629 457.965271,998.064148 
	C463.262085,997.487000 465.582336,999.598450 467.242676,1004.399658 
	C469.909332,1012.111084 470.219177,1012.003906 479.262329,1012.004089 
M957.685486,966.136536 
	C951.257996,981.207153 944.830505,996.277771 938.123779,1012.003113 
	C942.291321,1012.003113 945.446655,1011.840759 948.576416,1012.053406 
	C951.189392,1012.230957 952.801514,1011.302246 953.220337,1008.762634 
	C954.791321,999.237854 960.739990,996.573303 969.518799,998.164612 
	C970.324890,998.310730 971.205994,998.317505 972.009033,998.163635 
	C980.709961,996.496033 986.220764,999.464600 987.994690,1008.596924 
	C988.248047,1009.901245 990.130371,1011.685730 991.426147,1011.839783 
	C995.128845,1012.279968 998.917786,1011.994568 1003.166321,1011.994568 
	C1002.610718,1010.432312 1002.334229,1009.505432 1001.958496,1008.620728 
	C994.416077,990.864624 986.690857,973.182983 979.434753,955.310791 
	C977.683716,950.997864 975.413391,950.023804 971.021057,949.779175 
	C965.674622,949.481567 963.217651,951.452393 961.795227,956.220825 
	C960.850647,959.387695 959.254395,962.360229 957.685486,966.136536 
M803.923706,953.443665 
	C797.017334,949.923706 789.695435,948.859924 782.081787,949.996521 
	C773.287781,951.309326 766.752258,957.602844 765.913879,965.339050 
	C764.811279,975.512878 768.374268,981.164429 778.326721,984.796387 
	C780.820496,985.706482 783.442627,986.258301 785.975159,987.070251 
	C788.980713,988.033936 792.162476,988.731873 794.860718,990.262695 
	C796.453918,991.166748 798.340393,993.604187 798.142334,995.092102 
	C797.899353,996.917175 795.897400,999.408325 794.152832,999.930237 
	C791.267029,1000.793579 787.764099,1001.055237 784.908325,1000.230286 
	C780.076660,998.834595 775.546936,996.393677 770.485413,994.218201 
	C768.295715,996.951172 765.868896,999.980103 763.470398,1002.973694 
	C774.245972,1012.640686 790.463501,1015.591431 801.668457,1010.317017 
	C808.615540,1007.046875 811.750366,1001.331177 811.930237,993.935242 
	C812.106201,986.701294 808.696899,981.500549 802.077393,978.571533 
	C799.347961,977.363770 796.487061,976.437866 793.649048,975.494812 
	C790.021362,974.289307 786.153870,973.594238 782.792725,971.886169 
	C781.112915,971.032410 779.259094,968.301453 779.438538,966.629456 
	C779.620056,964.939453 781.965515,962.865662 783.824097,962.138733 
	C785.828064,961.354858 788.519409,961.415588 790.640015,962.035095 
	C794.881104,963.274170 798.937439,965.145874 803.465149,966.910339 
	C805.522522,963.885437 807.705811,960.675415 810.081116,957.183105 
	C807.945435,955.875122 806.258179,954.841858 803.923706,953.443665 
M823.626221,962.997375 
	C827.885742,962.997375 832.145264,962.997375 837.012085,962.997375 
	C837.012085,979.696106 837.012085,995.710876 837.012085,1011.635620 
	C841.716797,1011.635620 845.783569,1011.635620 850.280457,1011.635620 
	C850.280457,995.374634 850.280457,979.470337 850.280457,962.897827 
	C856.729614,962.897827 862.760315,962.897827 868.646851,962.897827 
	C868.646851,958.464417 868.646851,954.712952 868.646851,950.850220 
	C851.726074,950.850220 835.156921,950.850220 818.296021,950.850220 
	C818.296021,954.857910 818.296021,958.602661 818.296021,962.703003 
	C819.786621,962.803406 821.225830,962.900330 823.626221,962.997375 
M1020.728088,1011.964600 
	C1024.468384,1011.964600 1028.208618,1011.964600 1032.371826,1011.964600 
	C1032.371826,995.267944 1032.371826,979.361877 1032.371826,962.967407 
	C1038.707520,962.967407 1044.615601,962.967407 1050.585449,962.967407 
	C1050.585449,958.605286 1050.585449,954.752258 1050.585449,950.908691 
	C1033.613159,950.908691 1017.054810,950.908691 1000.420288,950.908691 
	C1000.420288,955.102478 1000.420288,958.957825 1000.420288,963.317261 
	C1006.732788,963.317261 1012.627869,963.317261 1018.825378,963.317261 
	C1018.825378,978.112671 1018.793152,992.397217 1018.867676,1006.681213 
	C1018.876648,1008.399048 1019.464844,1010.113892 1020.728088,1011.964600 
M752.421143,972.500244 
	C752.421143,965.400635 752.421143,958.301025 752.421143,950.897095 
	C747.677429,950.897095 743.619873,950.897095 739.358398,950.897095 
	C739.358398,971.334595 739.358398,991.513245 739.358398,1011.673950 
	C743.800964,1011.673950 747.883118,1011.673950 752.421387,1011.673950 
	C752.421387,998.736877 752.421387,986.118591 752.421143,972.500244 
M652.421143,973.500183 
	C652.421143,966.066833 652.421143,958.633423 652.421143,950.897644 
	C647.678467,950.897644 643.620789,950.897644 639.357910,950.897644 
	C639.357910,971.333374 639.357910,991.512085 639.357910,1011.674438 
	C643.799805,1011.674438 647.881958,1011.674438 652.421387,1011.674438 
	C652.421387,999.070984 652.421387,986.785645 652.421143,973.500183 
z"/>
<path fill="#FEFFFF" opacity="1.000000" stroke="none" 
	d="
M375.833923,566.000000 
	C375.833893,547.681213 375.833893,529.862427 375.833893,511.604248 
	C660.977844,511.604248 945.793518,511.604248 1230.887695,511.604248 
	C1230.887695,573.687439 1230.887695,635.595337 1230.887695,697.834717 
	C945.982239,697.834717 661.274963,697.834717 375.833923,697.834717 
	C375.833923,654.009521 375.833923,610.254761 375.833923,566.000000 
M641.169800,641.493958 
	C641.169800,636.061096 641.169800,630.628296 641.169800,624.840698 
	C645.569702,624.840698 649.229492,625.038208 652.857422,624.782776 
	C656.200073,624.547485 658.296387,625.611816 660.146912,628.557129 
	C665.100647,636.441589 670.416504,644.099792 675.661682,651.798035 
	C676.462463,652.973145 677.623535,654.743835 678.666565,654.778503 
	C686.326721,655.033142 693.999329,654.915955 702.428406,654.915955 
	C694.464050,643.211243 687.122192,632.421387 679.706604,621.523193 
	C680.756470,620.870850 681.295349,620.488831 681.874451,620.182922 
	C696.157959,612.637512 701.757629,600.968018 698.995117,584.483582 
	C696.853271,571.702942 687.352417,562.397766 672.266479,560.969055 
	C658.235107,559.640259 644.020996,560.234009 629.886902,560.003601 
	C626.786255,559.953064 623.684021,559.996277 620.563477,559.996277 
	C620.563477,592.031311 620.563477,623.381714 620.563477,654.688110 
	C627.562378,654.688110 634.152893,654.688110 641.169861,654.688110 
	C641.169861,650.415161 641.169861,646.452454 641.169800,641.493958 
M1183.828125,618.161926 
	C1183.895874,617.666931 1183.958374,617.171143 1184.031982,616.677063 
	C1188.391846,587.375244 1172.044189,564.623779 1142.735962,560.899719 
	C1130.259644,559.314392 1117.466797,560.214783 1104.817505,560.001831 
	C1102.394043,559.961060 1099.969238,559.996033 1097.451172,559.996033 
	C1097.451172,591.983643 1097.451172,623.228943 1097.451172,655.003540 
	C1110.854492,655.003540 1123.973022,655.078796 1137.090454,654.986755 
	C1159.577026,654.829041 1177.795776,640.670715 1183.828125,618.161926 
M574.500000,636.157654 
	C565.562683,636.157654 556.625427,636.157654 547.512695,636.157654 
	C547.512695,629.431702 547.512695,623.373779 547.512695,616.756348 
	C562.416504,616.756348 576.989807,616.756348 591.597412,616.756348 
	C591.597412,610.144592 591.597412,604.103394 591.597412,597.506287 
	C576.627930,597.506287 562.062744,597.506287 547.555908,597.506287 
	C547.555908,591.020386 547.555908,585.110352 547.555908,578.658813 
	C564.510071,578.658813 581.087219,578.658813 597.683960,578.658813 
	C597.683960,572.190857 597.683960,566.283203 597.683960,560.298157 
	C573.799316,560.298157 550.237000,560.298157 526.544189,560.298157 
	C526.544189,591.965515 526.544189,623.328247 526.544189,654.573303 
	C550.807312,654.573303 574.681458,654.573303 598.393799,654.573303 
	C598.393799,648.241089 598.393799,642.348572 598.393799,636.157715 
	C590.466125,636.157715 582.983032,636.157715 574.500000,636.157654 
M1019.502686,655.005127 
	C1038.104980,655.005127 1056.707275,655.005127 1075.525513,655.005127 
	C1075.525513,648.526550 1075.525513,642.633362 1075.525513,636.068481 
	C1058.350464,636.068481 1041.477783,636.068481 1024.552612,636.068481 
	C1024.552612,629.329590 1024.552612,623.270081 1024.552612,616.664978 
	C1039.504028,616.664978 1054.082642,616.664978 1068.723877,616.664978 
	C1068.723877,610.183777 1068.723877,604.262085 1068.723877,597.771729 
	C1053.890503,597.771729 1039.326416,597.771729 1024.474121,597.771729 
	C1024.474121,591.302002 1024.474121,585.402893 1024.474121,578.758057 
	C1041.379272,578.758057 1058.067017,578.758057 1074.638550,578.758057 
	C1074.638550,572.096008 1074.638550,566.184875 1074.638550,560.346436 
	C1050.709595,560.346436 1027.148804,560.346436 1003.421997,560.346436 
	C1003.421997,591.935791 1003.421997,623.173035 1003.421997,655.005127 
	C1008.613464,655.005127 1013.559204,655.005127 1019.502686,655.005127 
M471.253235,656.811951 
	C485.321045,655.912903 497.325623,650.833984 506.704163,639.519714 
	C502.063202,635.106140 497.643890,630.903320 493.212219,626.688843 
	C474.434143,639.848145 459.959625,640.539368 449.078583,628.741089 
	C438.783356,617.578064 438.376282,599.155273 448.165710,587.428528 
	C458.716614,574.789612 472.439178,574.996399 493.050507,588.390808 
	C497.386993,583.375183 501.769073,578.306702 506.119934,573.274414 
	C485.650146,553.021118 449.355103,553.540894 431.639709,574.228882 
	C417.478699,590.766113 414.906525,609.648743 423.875854,629.247620 
	C432.794678,648.736267 449.337494,656.910522 471.253235,656.811951 
M902.500488,599.160583 
	C896.229309,599.160583 889.958130,599.160583 883.639038,599.160583 
	C883.639038,592.141968 883.639038,585.791077 883.639038,578.900635 
	C900.662598,578.900635 917.220398,578.900635 933.586304,578.900635 
	C933.586304,572.281860 933.586304,566.226318 933.586304,560.394226 
	C909.614319,560.394226 886.060608,560.394226 862.455139,560.394226 
	C862.455139,592.021545 862.455139,623.250854 862.455139,654.630127 
	C869.458984,654.630127 876.164062,654.630127 883.396973,654.630127 
	C883.396973,642.518311 883.396973,630.770752 883.396973,618.451172 
	C898.496765,618.451172 913.071899,618.451172 927.681152,618.451172 
	C927.681152,611.781067 927.681152,605.710632 927.681152,599.160645 
	C919.411682,599.160645 911.455994,599.160645 902.500488,599.160583 
M744.144653,583.606812 
	C744.144653,607.222961 744.144653,630.839050 744.144653,654.731812 
	C751.453186,654.731812 758.197388,654.731812 765.546753,654.731812 
	C765.546753,652.597168 765.546753,650.637085 765.546753,648.676941 
	C765.546814,628.345886 765.506409,608.014648 765.565002,587.683777 
	C765.591675,578.433655 764.456177,579.646240 773.928772,579.558594 
	C780.542297,579.497437 787.156799,579.546814 793.919189,579.546814 
	C793.919189,572.736206 793.919189,566.640625 793.919189,560.271240 
	C767.768127,560.271240 741.879639,560.271240 715.907471,560.271240 
	C715.907471,566.770935 715.907471,572.979187 715.907471,579.551086 
	C724.173340,579.551086 731.989441,579.541321 739.805542,579.557495 
	C741.942932,579.561951 744.435364,579.144043 744.144653,583.606812 
M835.170044,646.450928 
	C835.170044,617.724976 835.170044,588.999084 835.170044,560.333801 
	C827.760620,560.333801 821.183716,560.333801 814.581909,560.333801 
	C814.581909,592.029663 814.581909,623.385803 814.581909,654.672119 
	C821.599487,654.672119 828.189514,654.672119 835.170105,654.672119 
	C835.170105,652.039917 835.170105,649.736145 835.170044,646.450928 
M976.170044,646.450928 
	C976.170044,617.724976 976.170044,588.999084 976.170044,560.333801 
	C968.760620,560.333801 962.183716,560.333801 955.581909,560.333801 
	C955.581909,592.029663 955.581909,623.385803 955.581909,654.672119 
	C962.599487,654.672119 969.189514,654.672119 976.170105,654.672119 
	C976.170105,652.039917 976.170105,649.736145 976.170044,646.450928 
z"/>
<path fill="#FFFFFF" opacity="1.000000" stroke="none" 
	d="
M843.000000,1153.000122 
	C857.324219,1153.000244 871.149536,1153.093018 884.971985,1152.935547 
	C888.471741,1152.895752 890.347778,1153.772217 892.197205,1157.175781 
	C905.166443,1181.042358 918.563354,1204.676392 931.740540,1228.430664 
	C939.268677,1242.001587 946.640869,1255.659180 954.506287,1270.051636 
	C853.746582,1302.482544 753.616638,1303.140869 653.269836,1269.735229 
	C659.321838,1258.521606 665.209167,1247.402832 671.296570,1236.394897 
	C676.996887,1226.087036 683.004333,1215.948853 688.706482,1205.641724 
	C697.973450,1188.890747 707.031250,1172.023438 716.422119,1155.342896 
	C717.169617,1154.015259 719.812805,1153.104248 721.579346,1153.097046 
	C754.057495,1152.964844 786.536255,1153.000244 819.014893,1153.000122 
	C826.843262,1153.000122 834.671631,1153.000122 843.000000,1153.000122 
z"/>
<path fill="#FFFFFF" opacity="1.000000" stroke="none" 
	d="
M691.168335,365.057861 
	C709.497620,361.524750 727.407471,358.033386 745.889404,354.430481 
	C744.183960,384.279388 742.530396,413.221130 740.852966,442.579529 
	C668.982605,442.579529 597.146118,442.579529 524.379822,442.579529 
	C530.357056,438.251801 535.576050,433.711975 541.465881,430.345764 
	C562.341858,418.414581 583.016113,406.006592 604.574402,395.424530 
	C631.418762,382.247803 659.731995,372.631409 688.950256,365.913849 
	C689.579041,365.769257 690.150696,365.376526 691.168335,365.057861 
z"/>
<path fill="#FFFFFF" opacity="1.000000" stroke="none" 
	d="
M1029.286499,409.696930 
	C1046.610107,420.422455 1063.626099,430.932434 1080.642090,441.442383 
	C1080.396362,441.897308 1080.150513,442.352203 1079.904785,442.807129 
	C1008.864258,442.807129 937.823730,442.807129 866.420105,442.807129 
	C865.946472,437.773651 865.299377,432.755463 865.038513,427.717285 
	C864.567627,418.625244 864.505615,409.510345 863.949585,400.424774 
	C863.114441,386.779266 861.992859,373.151398 861.017822,359.514282 
	C860.924255,358.206085 861.005371,356.885406 861.005371,355.335052 
	C889.272278,358.611267 916.511169,364.845947 943.326294,373.094391 
	C973.137695,382.264496 1001.388062,395.092651 1029.286499,409.696930 
z"/>
<path fill="#FEFEFF" opacity="1.000000" stroke="none" 
	d="
M624.000610,848.116821 
	C617.429382,849.883728 611.176636,852.904480 604.972717,852.807373 
	C593.571289,852.628723 582.199524,850.604736 570.813049,849.372131 
	C568.067810,849.075012 566.921082,847.887268 566.929443,844.859253 
	C567.034119,807.026428 567.021362,769.193115 566.950317,731.360107 
	C566.945068,728.547974 567.586182,727.237366 570.684326,726.864014 
	C577.269897,726.070435 583.795593,724.779480 590.833862,723.611450 
	C590.833862,737.864868 590.833862,751.646301 590.833862,765.590820 
	C596.083618,764.652344 600.864868,763.304932 605.708923,763.018860 
	C624.403015,761.914612 637.024536,770.781555 642.381714,788.699768 
	C645.789307,800.097412 646.105713,811.681274 643.073425,823.236206 
	C640.242859,834.022583 634.343567,842.569092 624.000610,848.116821 
M591.000854,789.973145 
	C591.000854,803.705688 591.000854,817.438171 591.000854,830.992554 
	C604.419617,834.243591 613.599548,831.143188 617.678406,821.741882 
	C621.748657,812.360168 621.775757,802.550720 618.111328,793.060120 
	C614.477234,783.647766 599.536621,780.310730 591.805603,786.871155 
	C591.287842,787.310547 591.262573,788.330383 591.000854,789.973145 
z"/>
<path fill="#FEFEFF" opacity="1.000000" stroke="none" 
	d="
M382.996918,737.057129 
	C382.997009,727.360535 382.999359,727.376160 391.895813,726.030945 
	C396.173004,725.384155 400.438171,724.658447 404.712219,723.990234 
	C405.195190,723.914673 405.700165,723.979919 406.864502,723.979919 
	C406.864502,747.355591 406.864502,770.671021 406.864502,793.986389 
	C407.260498,794.133179 407.656494,794.279968 408.052490,794.426697 
	C414.879272,786.350037 421.938049,778.454163 428.435364,770.120544 
	C431.698822,765.934814 435.082581,763.911804 440.539642,764.348755 
	C447.118622,764.875549 453.771942,764.473389 461.116760,765.638855 
	C450.139679,777.960999 439.162598,790.283081 428.071960,802.732666 
	C441.427612,816.978516 453.220245,832.517944 462.574860,850.976379 
	C453.327179,850.976379 444.915436,851.101318 436.516266,850.832642 
	C435.346405,850.795227 434.030579,848.968872 433.135254,847.717957 
	C426.650177,838.657288 420.308990,829.493408 413.794983,820.453857 
	C412.184631,818.219299 410.106110,816.322021 408.242828,814.269714 
	C407.865997,814.463074 407.489136,814.656433 407.112305,814.849854 
	C407.112305,826.711060 407.112305,838.572266 407.112305,850.712646 
	C398.970703,850.712646 391.376068,850.712646 382.996918,850.712646 
	C382.996918,813.024719 382.996918,775.285645 382.996918,737.057129 
z"/>
<path fill="#FDFEFF" opacity="1.000000" stroke="none" 
	d="
M665.246277,782.354004 
	C676.264587,764.445557 696.456726,757.576355 715.219299,765.060547 
	C732.586060,771.988098 740.503723,791.529907 736.925842,815.894592 
	C719.430115,815.894592 701.852417,815.894592 684.266907,815.894592 
	C684.471863,823.205627 689.284058,828.857910 697.043884,830.906799 
	C706.342590,833.362061 715.540039,832.009216 724.652527,829.642761 
	C726.236633,829.231323 727.792664,828.711548 729.699585,828.140625 
	C730.687988,834.168213 731.744507,839.876892 732.455811,845.628296 
	C732.582886,846.655945 731.510315,848.590942 730.605286,848.874756 
	C714.405334,853.954834 698.083435,856.100403 681.861450,849.127563 
	C671.647278,844.737183 664.869263,836.938049 661.708069,826.311279 
	C657.270996,811.395020 657.754883,796.743591 665.246277,782.354004 
M710.973022,799.000549 
	C712.082947,798.884766 713.192932,798.768982 714.291382,798.654419 
	C713.643005,788.258789 708.351624,782.765930 699.292847,782.841309 
	C690.582642,782.913757 684.685852,789.069336 684.235657,798.561340 
	C684.540283,798.681213 684.844299,798.904053 685.149536,798.905701 
	C693.459900,798.951355 701.770264,798.974365 710.973022,799.000549 
z"/>
<path fill="#FDFEFF" opacity="1.000000" stroke="none" 
	d="
M1086.220703,772.203857 
	C1100.178833,760.812073 1118.999023,759.067627 1133.114868,767.474243 
	C1147.356934,775.955933 1153.108765,795.007019 1149.934570,815.880127 
	C1132.445190,815.880127 1114.869751,815.880127 1097.290283,815.880127 
	C1097.437378,823.161194 1102.261597,828.848511 1110.024902,830.902710 
	C1119.322998,833.363098 1128.521973,832.012146 1137.635864,829.647766 
	C1139.221558,829.236328 1140.778198,828.712463 1142.697998,828.135498 
	C1143.684692,834.152954 1144.770264,839.859253 1145.430542,845.614380 
	C1145.554199,846.692505 1144.209595,848.703552 1143.149536,849.037903 
	C1127.946777,853.832886 1112.539429,855.741089 1097.157349,850.118835 
	C1085.849976,845.985840 1077.987183,837.963135 1074.749268,826.310974 
	C1069.259399,806.555847 1070.885986,788.036865 1086.220703,772.203857 
M1114.210327,782.884949 
	C1103.620483,782.868408 1097.503784,788.555847 1097.306763,798.595093 
	C1107.313599,798.595093 1117.320312,798.595093 1127.352905,798.595093 
	C1126.491699,789.103210 1123.093384,784.880188 1114.210327,782.884949 
z"/>
<path fill="#FDFEFF" opacity="1.000000" stroke="none" 
	d="
M967.869629,764.959839 
	C984.904907,772.297363 989.883911,786.502686 990.802917,803.053101 
	C991.031311,807.166504 990.837036,811.303406 990.837036,815.904175 
	C972.420654,815.904175 954.841675,815.904175 937.253540,815.904175 
	C937.492004,823.231140 942.296387,828.862915 950.053711,830.908875 
	C959.352295,833.361328 968.548279,832.007690 977.659607,829.640625 
	C979.240112,829.229980 980.792908,828.713074 982.700012,828.143127 
	C983.689148,834.174072 984.745850,839.882446 985.456848,845.633545 
	C985.583740,846.659851 984.507202,848.592285 983.600769,848.876526 
	C967.402100,853.955444 951.081604,856.099548 934.861389,849.127502 
	C924.648376,844.737488 918.018066,836.896606 914.675415,826.323853 
	C911.334778,815.757874 910.960449,805.006226 913.612549,794.289490 
	C919.898926,768.887085 942.557678,756.589233 967.869629,764.959839 
M955.473816,799.001160 
	C959.408691,799.001160 963.343567,799.001160 967.301697,799.001160 
	C966.657166,787.807373 960.718201,782.177551 950.866821,782.881531 
	C942.869202,783.453064 936.813171,790.679626 937.615784,799.001160 
	C943.218811,799.001160 948.850647,799.001160 955.473816,799.001160 
z"/>
<path fill="#FCFDFF" opacity="1.000000" stroke="none" 
	d="
M893.952637,787.184387 
	C894.526611,795.056702 895.336182,802.509155 895.467285,809.973450 
	C895.703674,823.433655 895.534180,836.901001 895.534180,850.683472 
	C887.480591,850.683472 879.900574,850.683472 871.465942,850.683472 
	C871.465942,848.820435 871.478149,846.910278 871.464111,845.000183 
	C871.350220,829.514587 871.614441,814.013550 870.994202,798.548157 
	C870.488525,785.938171 860.857605,780.005981 848.970215,784.424255 
	C847.925232,784.812622 847.100403,787.251404 847.090088,788.744141 
	C846.962891,807.066467 847.007019,825.389954 847.006775,843.713135 
	C847.006775,845.871399 847.006775,848.029602 847.006775,850.596985 
	C839.100952,850.596985 831.387939,850.596985 823.232483,850.596985 
	C823.155579,849.077698 823.004578,847.474854 823.003601,845.871826 
	C822.988647,821.385376 823.103333,796.897949 822.883301,772.413452 
	C822.847168,768.398926 824.189392,766.586731 827.900146,766.227478 
	C839.792542,765.076233 851.680603,763.174866 863.586731,763.042603 
	C879.831970,762.862122 889.293335,770.910767 893.952637,787.184387 
z"/>
<path fill="#FCFDFF" opacity="1.000000" stroke="none" 
	d="
M514.909546,853.003174 
	C508.954041,852.711121 503.409607,852.884583 498.029449,852.027222 
	C485.192017,849.981445 477.207520,842.276794 474.124573,829.688904 
	C473.179291,825.829285 472.382324,821.821167 472.339142,817.872070 
	C472.148163,800.405762 472.256500,782.936218 472.256500,764.966431 
	C480.103882,764.966431 487.788910,764.966431 496.174866,764.966431 
	C496.174866,767.222229 496.149048,769.485962 496.179047,771.748962 
	C496.386444,787.382141 496.143402,803.039307 496.960938,818.640808 
	C497.666443,832.104553 506.507690,833.408752 518.763000,831.133423 
	C519.707825,830.958008 520.724487,828.075684 520.736572,826.444275 
	C520.875061,807.798889 520.825073,789.152039 520.825256,770.505615 
	C520.825256,768.699463 520.825195,766.893372 520.825195,764.848755 
	C529.025696,764.848755 536.751648,764.848755 544.845642,764.848755 
	C544.845642,770.872559 544.845642,776.516602 544.845581,782.160645 
	C544.845459,802.638428 544.771729,823.116821 544.917969,843.593506 
	C544.942261,846.995178 544.192688,848.831726 540.532227,849.304016 
	C532.134094,850.387634 523.771973,851.750549 514.909546,853.003174 
z"/>
<path fill="#FFFFFF" opacity="1.000000" stroke="none" 
	d="
M1049.681641,1198.262451 
	C1043.421997,1183.136230 1037.388306,1168.328369 1031.219971,1153.189697 
	C1067.813843,1153.189697 1103.920044,1153.189697 1141.288330,1153.189697 
	C1115.899536,1178.706543 1088.895630,1200.754395 1058.834351,1220.077148 
	C1055.773071,1212.705322 1052.840454,1205.643066 1049.681641,1198.262451 
z"/>
<path fill="#FCFDFF" opacity="1.000000" stroke="none" 
	d="
M1193.245850,793.816895 
	C1199.787231,796.785095 1206.083618,799.395569 1212.208740,802.360046 
	C1226.067627,809.067627 1230.871216,818.545715 1228.165039,833.107788 
	C1226.777466,840.574463 1222.532227,845.854370 1215.772095,848.942078 
	C1202.275513,855.106506 1188.261597,854.263855 1174.209961,851.362976 
	C1170.843384,850.668030 1167.591309,849.418579 1164.008545,848.340515 
	C1165.420288,841.358154 1166.726807,834.895691 1167.821655,829.479980 
	C1177.145996,830.751953 1185.942505,831.991943 1194.754028,833.114502 
	C1196.213135,833.300415 1197.972534,833.418823 1199.179321,832.782898 
	C1201.209961,831.712891 1204.010986,830.276978 1204.435303,828.503845 
	C1204.855469,826.748108 1203.236206,823.789612 1201.613770,822.430054 
	C1199.260132,820.457703 1196.142090,819.354736 1193.272949,818.050903 
	C1189.643555,816.401550 1185.874512,815.053772 1182.274536,813.346313 
	C1170.619751,807.818726 1165.084473,798.515625 1166.244873,786.658081 
	C1167.426025,774.588745 1174.344482,766.769470 1187.111206,763.697632 
	C1199.946167,760.609497 1212.434937,762.548218 1225.098145,766.781860 
	C1223.682495,773.280396 1222.349731,779.398315 1221.004150,785.574829 
	C1215.660522,784.495056 1210.707642,783.243530 1205.677490,782.570862 
	C1202.601196,782.159363 1199.332886,782.237122 1196.279175,782.796326 
	C1189.343750,784.066345 1188.125122,788.324585 1193.245850,793.816895 
z"/>
<path fill="#FFFFFF" opacity="1.000000" stroke="none" 
	d="
M532.214233,1207.736084 
	C522.776245,1200.626465 513.247498,1194.187622 504.512421,1186.808960 
	C493.035339,1177.114014 482.177795,1166.684937 471.072418,1156.551392 
	C470.138977,1155.699707 469.346100,1154.693848 468.038025,1153.270020 
	C504.309265,1153.270020 539.856934,1153.270020 576.233459,1153.270020 
	C567.144836,1175.272217 558.170166,1196.998779 548.929871,1219.368286 
	C543.127136,1215.354980 537.801819,1211.671753 532.214233,1207.736084 
z"/>
<path fill="#FCFDFF" opacity="1.000000" stroke="none" 
	d="
M1060.535522,777.875488 
	C1060.535400,780.476379 1060.535400,782.600342 1060.535400,785.128723 
	C1050.950562,785.128723 1041.993408,785.128723 1032.483154,785.128723 
	C1032.365723,787.086731 1032.192871,788.675110 1032.188232,790.264038 
	C1032.162476,799.091736 1032.058594,807.921570 1032.207153,816.746887 
	C1032.411865,828.910583 1036.939941,833.005676 1049.026123,831.925232 
	C1052.783813,831.589294 1056.485474,830.627197 1060.627930,829.876526 
	C1061.755005,836.108948 1062.841797,842.117432 1064.023804,848.653137 
	C1050.239136,853.934631 1036.549316,855.517639 1022.886047,849.182251 
	C1015.059753,845.553284 1011.141052,838.604126 1009.584290,830.333130 
	C1008.908630,826.743530 1008.244385,823.081787 1008.227295,819.449646 
	C1008.111023,794.799011 1008.167053,770.147583 1008.181335,745.496399 
	C1008.181702,744.846619 1008.339844,744.197021 1008.478516,743.131714 
	C1016.135559,741.841309 1023.794800,740.550537 1032.174805,739.138306 
	C1032.174805,744.788574 1032.174683,750.072571 1032.174683,755.356567 
	C1032.174805,764.463806 1032.174927,764.463867 1041.544800,764.464050 
	C1047.659424,764.464172 1053.774048,764.464050 1060.535645,764.464050 
	C1060.535645,769.171692 1060.535645,773.285156 1060.535522,777.875488 
z"/>
<path fill="#FEFFFF" opacity="1.000000" stroke="none" 
	d="
M755.999084,792.000000 
	C755.999512,785.177307 755.823120,778.845886 756.131226,772.538269 
	C756.203552,771.056274 757.615356,768.795166 758.913574,768.346313 
	C774.257080,763.041260 789.882080,761.083862 806.005493,764.635681 
	C809.969543,765.508911 810.767029,767.159119 809.870483,770.774963 
	C808.638123,775.744812 807.747192,780.799316 806.793457,785.414062 
	C797.821228,784.914917 789.196472,784.435059 780.151489,783.931824 
	C780.151489,806.988525 780.151489,828.580383 780.151489,850.585693 
	C772.118286,850.585693 764.411316,850.585693 755.999084,850.585693 
	C755.999084,831.289307 755.999084,811.894653 755.999084,792.000000 
z"/>
<path fill="#447BF4" opacity="1.000000" stroke="none" 
	d="
M610.571533,992.000854 
	C610.571411,985.707214 610.571411,979.913208 610.571411,974.119263 
	C610.190063,973.945312 609.808716,973.771423 609.427307,973.597534 
	C604.110046,981.576965 598.792786,989.556396 593.033386,998.199402 
	C587.392456,989.755859 582.107361,981.845032 575.997925,972.700256 
	C575.997925,986.487793 575.997925,998.846313 575.997925,1011.598816 
	C571.439575,1011.598816 567.396912,1011.598816 562.958374,1011.598816 
	C562.958374,991.542236 562.958374,971.495056 562.958374,950.645630 
	C567.261963,950.645630 571.534607,950.401855 575.747314,950.796936 
	C576.982300,950.912781 578.312073,952.673401 579.145813,953.970947 
	C583.719299,961.088440 588.152039,968.296265 593.206604,976.391663 
	C596.884094,970.481628 600.171570,965.236633 603.420959,959.968201 
	C609.964539,949.358826 610.557373,949.084961 623.689331,951.107971 
	C623.689331,971.137024 623.689331,991.217041 623.689331,1011.650024 
	C619.616394,1011.650024 615.548035,1011.650024 610.571655,1011.650024 
	C610.571655,1005.309448 610.571655,998.904968 610.571533,992.000854 
z"/>
<path fill="#447BF4" opacity="1.000000" stroke="none" 
	d="
M668.570068,996.996704 
	C668.569946,981.513062 668.569946,966.529114 668.569946,951.668823 
	C676.564514,948.965027 680.607178,950.063293 685.157471,956.019287 
	C693.027039,966.319824 700.876831,976.635437 709.697632,988.207764 
	C709.697632,974.907959 709.697632,963.084045 709.697632,950.922852 
	C714.405579,950.922852 718.461060,950.922852 722.850342,950.922852 
	C722.850342,971.196289 722.850342,991.271606 722.850342,1011.569702 
	C716.364075,1012.661682 711.099182,1012.528015 706.689209,1005.923523 
	C699.403625,995.012024 690.935974,984.889832 682.010864,973.181396 
	C682.010864,986.861206 682.010864,999.166809 682.010864,1011.726501 
	C677.335327,1011.726501 673.406982,1011.726501 668.570190,1011.726501 
	C668.570190,1006.968994 668.570190,1002.232666 668.570068,996.996704 
z"/>
<path fill="#457CF4" opacity="1.000000" stroke="none" 
	d="
M1063.963135,960.990967 
	C1076.956665,946.362976 1100.030884,945.482788 1113.181152,958.842651 
	C1125.723633,971.584961 1124.980835,992.862793 1111.576050,1004.821899 
	C1099.017700,1016.025818 1078.787231,1015.794739 1066.440918,1004.306213 
	C1054.644409,993.329224 1053.488159,974.920715 1063.963135,960.990967 
M1105.039429,970.636902 
	C1098.889526,962.393860 1090.369995,959.709534 1081.864258,963.335022 
	C1074.158813,966.619324 1069.805176,975.121216 1071.067749,984.418762 
	C1072.226074,992.948364 1079.052734,999.656799 1087.760254,1000.442017 
	C1094.553345,1001.054565 1100.342407,998.668640 1104.258545,993.023254 
	C1109.038208,986.133179 1109.245850,978.760071 1105.039429,970.636902 
z"/>
<path fill="#447BF4" opacity="1.000000" stroke="none" 
	d="
M887.897949,1012.002075 
	C885.108765,1012.002136 882.797485,1012.002136 880.029480,1012.002136 
	C880.029480,991.552368 880.029480,971.406860 880.029480,951.260376 
	C891.954956,951.260376 903.763306,950.489502 915.413696,951.514221 
	C924.093994,952.277771 929.052246,958.674500 930.478516,967.234741 
	C931.955505,976.099426 928.646606,983.665588 921.280457,988.229248 
	C920.307800,988.831909 919.294861,989.369568 917.835632,990.202759 
	C922.610413,997.288391 927.277222,1004.213684 932.512146,1011.982178 
	C927.203003,1011.982178 922.791809,1012.158081 918.411926,1011.865417 
	C917.235168,1011.786804 915.870911,1010.486694 915.080933,1009.394287 
	C912.548340,1005.892761 909.776611,1002.445740 907.956848,998.573669 
	C904.862244,991.989319 899.905090,991.058594 893.160278,992.760376 
	C893.160278,998.854431 893.160278,1005.094055 893.160278,1011.665833 
	C891.246338,1011.800354 889.811096,1011.901184 887.897949,1012.002075 
M893.032654,964.743896 
	C893.032654,969.696960 893.032654,974.649963 893.032654,979.986145 
	C898.924988,979.986145 904.392822,980.344604 909.787781,979.871460 
	C914.013062,979.500916 916.655212,976.665344 916.967896,972.217285 
	C917.254578,968.138367 915.778442,964.231262 911.676270,963.758545 
	C905.588745,963.057190 899.344421,963.715759 893.032654,964.743896 
z"/>
<path fill="#447BF4" opacity="1.000000" stroke="none" 
	d="
M1185.817505,970.153687 
	C1185.254639,980.234375 1183.737793,982.622498 1173.024658,990.566101 
	C1177.656860,997.393066 1182.296753,1004.231384 1187.557373,1011.984497 
	C1182.265015,1011.984497 1177.871582,1012.156921 1173.508057,1011.871216 
	C1172.317749,1011.793335 1170.917236,1010.555542 1170.131470,1009.473572 
	C1167.591553,1005.975586 1164.825928,1002.521912 1163.005493,998.647888 
	C1159.926392,992.095337 1154.969482,991.104492 1148.215332,992.697510 
	C1148.215332,998.798645 1148.215332,1005.039001 1148.215332,1011.637573 
	C1143.507324,1011.637573 1139.309204,1011.637573 1134.893311,1011.637573 
	C1134.893311,991.357117 1134.893311,971.306274 1134.893311,951.264587 
	C1146.962280,951.264587 1158.791260,950.406555 1170.427856,951.533752 
	C1179.878662,952.449219 1184.324585,958.973877 1185.817505,970.153687 
M1169.306274,977.915527 
	C1173.876465,971.654419 1172.421875,964.471252 1165.796265,963.414246 
	C1160.080933,962.502563 1154.104980,963.224976 1148.354126,963.224976 
	C1148.354126,969.072876 1148.354126,974.456604 1148.354126,980.990906 
	C1155.438354,980.082336 1162.046387,979.234802 1169.306274,977.915527 
z"/>
<path fill="#447BF4" opacity="1.000000" stroke="none" 
	d="
M507.999817,1012.001343 
	C503.048859,1012.001282 498.595184,1012.001282 493.882263,1012.001282 
	C493.882263,991.387695 493.882263,971.334717 493.882263,951.502075 
	C504.930328,951.502075 515.914795,950.041992 526.337769,951.838989 
	C542.595642,954.641907 551.614929,968.604614 549.953674,984.928650 
	C548.448425,999.719910 535.924255,1011.056091 519.987183,1011.924438 
	C516.167053,1012.132507 512.327637,1011.985168 507.999817,1012.001343 
M520.969421,962.968811 
	C516.398865,962.968811 511.828278,962.968811 507.336243,962.968811 
	C507.336243,975.567017 507.336243,987.468384 507.336243,999.316650 
	C523.482239,1001.584595 532.879150,997.089355 535.426636,986.088013 
	C537.953796,975.174744 532.859070,966.545532 520.969421,962.968811 
z"/>
<path fill="#457CF4" opacity="1.000000" stroke="none" 
	d="
M478.807861,1012.004089 
	C470.219177,1012.003906 469.909332,1012.111084 467.242676,1004.399658 
	C465.582336,999.598450 463.262085,997.487000 457.965271,998.064148 
	C452.867096,998.619629 447.654236,998.344666 442.505035,998.124023 
	C439.539886,997.997009 438.102997,999.070862 436.987457,1001.822571 
	C432.438690,1013.043335 432.344299,1013.005066 419.720490,1011.607300 
	C420.115875,1010.319031 420.382935,1009.063110 420.875244,1007.902710 
	C428.534851,989.849182 436.340302,971.856018 443.800812,953.720886 
	C445.186768,950.351929 447.133148,949.571411 450.198456,950.009277 
	C453.609802,950.496460 457.553223,948.321167 459.716370,953.643921 
	C467.286926,972.272705 475.344360,990.703552 483.200653,1009.216431 
	C483.508514,1009.941895 483.649689,1010.738098 484.012634,1012.004089 
	C482.164673,1012.004089 480.713501,1012.004089 478.807861,1012.004089 
M447.245667,976.745605 
	C446.110748,979.645325 444.975800,982.545105 443.690460,985.829102 
	C449.144867,985.829102 453.995239,985.829102 459.582275,985.829102 
	C456.879944,979.244934 454.407623,973.221130 451.585846,966.345825 
	C449.986328,970.239441 448.790161,973.151245 447.245667,976.745605 
z"/>
<path fill="#457CF4" opacity="1.000000" stroke="none" 
	d="
M957.817627,965.778137 
	C959.254395,962.360229 960.850647,959.387695 961.795227,956.220825 
	C963.217651,951.452393 965.674622,949.481567 971.021057,949.779175 
	C975.413391,950.023804 977.683716,950.997864 979.434753,955.310791 
	C986.690857,973.182983 994.416077,990.864624 1001.958496,1008.620728 
	C1002.334229,1009.505432 1002.610718,1010.432312 1003.166321,1011.994568 
	C998.917786,1011.994568 995.128845,1012.279968 991.426147,1011.839783 
	C990.130371,1011.685730 988.248047,1009.901245 987.994690,1008.596924 
	C986.220764,999.464600 980.709961,996.496033 972.009033,998.163635 
	C971.205994,998.317505 970.324890,998.310730 969.518799,998.164612 
	C960.739990,996.573303 954.791321,999.237854 953.220337,1008.762634 
	C952.801514,1011.302246 951.189392,1012.230957 948.576416,1012.053406 
	C945.446655,1011.840759 942.291321,1012.003113 938.123779,1012.003113 
	C944.830505,996.277771 951.257996,981.207153 957.817627,965.778137 
M976.950989,986.072693 
	C977.256958,985.439026 977.979370,984.643799 977.805725,984.196228 
	C975.596375,978.502319 973.258362,972.858398 970.584351,966.296875 
	C967.725159,973.287720 965.251099,979.336975 962.462952,986.154297 
	C967.536865,986.154297 971.797546,986.154297 976.950989,986.072693 
z"/>
<path fill="#467CF4" opacity="1.000000" stroke="none" 
	d="
M804.247314,953.626099 
	C806.258179,954.841858 807.945435,955.875122 810.081116,957.183105 
	C807.705811,960.675415 805.522522,963.885437 803.465149,966.910339 
	C798.937439,965.145874 794.881104,963.274170 790.640015,962.035095 
	C788.519409,961.415588 785.828064,961.354858 783.824097,962.138733 
	C781.965515,962.865662 779.620056,964.939453 779.438538,966.629456 
	C779.259094,968.301453 781.112915,971.032410 782.792725,971.886169 
	C786.153870,973.594238 790.021362,974.289307 793.649048,975.494812 
	C796.487061,976.437866 799.347961,977.363770 802.077393,978.571533 
	C808.696899,981.500549 812.106201,986.701294 811.930237,993.935242 
	C811.750366,1001.331177 808.615540,1007.046875 801.668457,1010.317017 
	C790.463501,1015.591431 774.245972,1012.640686 763.470398,1002.973694 
	C765.868896,999.980103 768.295715,996.951172 770.485413,994.218201 
	C775.546936,996.393677 780.076660,998.834595 784.908325,1000.230286 
	C787.764099,1001.055237 791.267029,1000.793579 794.152832,999.930237 
	C795.897400,999.408325 797.899353,996.917175 798.142334,995.092102 
	C798.340393,993.604187 796.453918,991.166748 794.860718,990.262695 
	C792.162476,988.731873 788.980713,988.033936 785.975159,987.070251 
	C783.442627,986.258301 780.820496,985.706482 778.326721,984.796387 
	C768.374268,981.164429 764.811279,975.512878 765.913879,965.339050 
	C766.752258,957.602844 773.287781,951.309326 782.081787,949.996521 
	C789.695435,948.859924 797.017334,949.923706 804.247314,953.626099 
z"/>
<path fill="#427AF4" opacity="1.000000" stroke="none" 
	d="
M823.145630,962.997314 
	C821.225830,962.900330 819.786621,962.803406 818.296021,962.703003 
	C818.296021,958.602661 818.296021,954.857910 818.296021,950.850220 
	C835.156921,950.850220 851.726074,950.850220 868.646851,950.850220 
	C868.646851,954.712952 868.646851,958.464417 868.646851,962.897827 
	C862.760315,962.897827 856.729614,962.897827 850.280457,962.897827 
	C850.280457,979.470337 850.280457,995.374634 850.280457,1011.635620 
	C845.783569,1011.635620 841.716797,1011.635620 837.012085,1011.635620 
	C837.012085,995.710876 837.012085,979.696106 837.012085,962.997375 
	C832.145264,962.997375 827.885742,962.997375 823.145630,962.997314 
z"/>
<path fill="#427AF4" opacity="1.000000" stroke="none" 
	d="
M1020.256348,1011.897339 
	C1019.464844,1010.113892 1018.876648,1008.399048 1018.867676,1006.681213 
	C1018.793152,992.397217 1018.825378,978.112671 1018.825378,963.317261 
	C1012.627869,963.317261 1006.732788,963.317261 1000.420288,963.317261 
	C1000.420288,958.957825 1000.420288,955.102478 1000.420288,950.908691 
	C1017.054810,950.908691 1033.613159,950.908691 1050.585449,950.908691 
	C1050.585449,954.752258 1050.585449,958.605286 1050.585449,962.967407 
	C1044.615601,962.967407 1038.707520,962.967407 1032.371826,962.967407 
	C1032.371826,979.361877 1032.371826,995.267944 1032.371826,1011.964600 
	C1028.208618,1011.964600 1024.468384,1011.964600 1020.256348,1011.897339 
z"/>
<path fill="#427AF4" opacity="1.000000" stroke="none" 
	d="
M752.421265,973.000244 
	C752.421387,986.118591 752.421387,998.736877 752.421387,1011.673950 
	C747.883118,1011.673950 743.800964,1011.673950 739.358398,1011.673950 
	C739.358398,991.513245 739.358398,971.334595 739.358398,950.897095 
	C743.619873,950.897095 747.677429,950.897095 752.421143,950.897095 
	C752.421143,958.301025 752.421143,965.400635 752.421265,973.000244 
z"/>
<path fill="#427AF4" opacity="1.000000" stroke="none" 
	d="
M652.421265,974.000244 
	C652.421387,986.785645 652.421387,999.070984 652.421387,1011.674438 
	C647.881958,1011.674438 643.799805,1011.674438 639.357910,1011.674438 
	C639.357910,991.512085 639.357910,971.333374 639.357910,950.897644 
	C643.620789,950.897644 647.678467,950.897644 652.421143,950.897644 
	C652.421143,958.633423 652.421143,966.066833 652.421265,974.000244 
z"/>
<path fill="#447BF4" opacity="1.000000" stroke="none" 
	d="
M641.169800,641.991882 
	C641.169861,646.452454 641.169861,650.415161 641.169861,654.688110 
	C634.152893,654.688110 627.562378,654.688110 620.563477,654.688110 
	C620.563477,623.381714 620.563477,592.031311 620.563477,559.996277 
	C623.684021,559.996277 626.786255,559.953064 629.886902,560.003601 
	C644.020996,560.234009 658.235107,559.640259 672.266479,560.969055 
	C687.352417,562.397766 696.853271,571.702942 698.995117,584.483582 
	C701.757629,600.968018 696.157959,612.637512 681.874451,620.182922 
	C681.295349,620.488831 680.756470,620.870850 679.706604,621.523193 
	C687.122192,632.421387 694.464050,643.211243 702.428406,654.915955 
	C693.999329,654.915955 686.326721,655.033142 678.666565,654.778503 
	C677.623535,654.743835 676.462463,652.973145 675.661682,651.798035 
	C670.416504,644.099792 665.100647,636.441589 660.146912,628.557129 
	C658.296387,625.611816 656.200073,624.547485 652.857422,624.782776 
	C649.229492,625.038208 645.569702,624.840698 641.169800,624.840698 
	C641.169800,630.628296 641.169800,636.061096 641.169800,641.991882 
M644.842224,579.163879 
	C643.630066,579.897156 641.388855,580.597717 641.364319,581.368774 
	C641.107544,589.440247 641.205811,597.523010 641.205811,606.002563 
	C643.310608,606.002563 644.775635,606.007629 646.240601,606.001648 
	C652.717834,605.975342 659.225403,606.330261 665.664917,605.823181 
	C674.354919,605.138794 679.347107,598.314148 677.974915,589.873474 
	C676.942810,583.524658 671.775513,579.515137 663.714111,579.217102 
	C657.742310,578.996277 651.756165,579.165833 644.842224,579.163879 
z"/>
<path fill="#447BF4" opacity="1.000000" stroke="none" 
	d="
M1183.717529,618.564514 
	C1177.795776,640.670715 1159.577026,654.829041 1137.090454,654.986755 
	C1123.973022,655.078796 1110.854492,655.003540 1097.451172,655.003540 
	C1097.451172,623.228943 1097.451172,591.983643 1097.451172,559.996033 
	C1099.969238,559.996033 1102.394043,559.961060 1104.817505,560.001831 
	C1117.466797,560.214783 1130.259644,559.314392 1142.735962,560.899719 
	C1172.044189,564.623779 1188.391846,587.375244 1184.031982,616.677063 
	C1183.958374,617.171143 1183.895874,617.666931 1183.717529,618.564514 
M1135.176025,579.164978 
	C1129.605591,579.164978 1124.035278,579.164978 1118.536133,579.164978 
	C1118.536133,598.589539 1118.536133,617.123657 1118.536133,635.864990 
	C1125.368408,635.864990 1131.892944,636.404602 1138.272949,635.676514 
	C1142.575317,635.185547 1147.059814,633.547241 1150.788818,631.302490 
	C1160.818604,625.264893 1164.969971,612.614990 1161.863281,599.638428 
	C1159.037842,587.836487 1150.061646,580.706482 1135.176025,579.164978 
z"/>
<path fill="#457CF4" opacity="1.000000" stroke="none" 
	d="
M575.000000,636.157715 
	C582.983032,636.157715 590.466125,636.157715 598.393799,636.157715 
	C598.393799,642.348572 598.393799,648.241089 598.393799,654.573303 
	C574.681458,654.573303 550.807312,654.573303 526.544189,654.573303 
	C526.544189,623.328247 526.544189,591.965515 526.544189,560.298157 
	C550.237000,560.298157 573.799316,560.298157 597.683960,560.298157 
	C597.683960,566.283203 597.683960,572.190857 597.683960,578.658813 
	C581.087219,578.658813 564.510071,578.658813 547.555908,578.658813 
	C547.555908,585.110352 547.555908,591.020386 547.555908,597.506287 
	C562.062744,597.506287 576.627930,597.506287 591.597412,597.506287 
	C591.597412,604.103394 591.597412,610.144592 591.597412,616.756348 
	C576.989807,616.756348 562.416504,616.756348 547.512695,616.756348 
	C547.512695,623.373779 547.512695,629.431702 547.512695,636.157654 
	C556.625427,636.157654 565.562683,636.157654 575.000000,636.157715 
z"/>
<path fill="#457CF4" opacity="1.000000" stroke="none" 
	d="
M1019.003784,655.005127 
	C1013.559204,655.005127 1008.613464,655.005127 1003.421997,655.005127 
	C1003.421997,623.173035 1003.421997,591.935791 1003.421997,560.346436 
	C1027.148804,560.346436 1050.709595,560.346436 1074.638550,560.346436 
	C1074.638550,566.184875 1074.638550,572.096008 1074.638550,578.758057 
	C1058.067017,578.758057 1041.379272,578.758057 1024.474121,578.758057 
	C1024.474121,585.402893 1024.474121,591.302002 1024.474121,597.771729 
	C1039.326416,597.771729 1053.890503,597.771729 1068.723877,597.771729 
	C1068.723877,604.262085 1068.723877,610.183777 1068.723877,616.664978 
	C1054.082642,616.664978 1039.504028,616.664978 1024.552612,616.664978 
	C1024.552612,623.270081 1024.552612,629.329590 1024.552612,636.068481 
	C1041.477783,636.068481 1058.350464,636.068481 1075.525513,636.068481 
	C1075.525513,642.633362 1075.525513,648.526550 1075.525513,655.005127 
	C1056.707275,655.005127 1038.104980,655.005127 1019.003784,655.005127 
z"/>
<path fill="#457CF4" opacity="1.000000" stroke="none" 
	d="
M470.793762,656.823975 
	C449.337494,656.910522 432.794678,648.736267 423.875854,629.247620 
	C414.906525,609.648743 417.478699,590.766113 431.639709,574.228882 
	C449.355103,553.540894 485.650146,553.021118 506.119934,573.274414 
	C501.769073,578.306702 497.386993,583.375183 493.050507,588.390808 
	C472.439178,574.996399 458.716614,574.789612 448.165710,587.428528 
	C438.376282,599.155273 438.783356,617.578064 449.078583,628.741089 
	C459.959625,640.539368 474.434143,639.848145 493.212219,626.688843 
	C497.643890,630.903320 502.063202,635.106140 506.704163,639.519714 
	C497.325623,650.833984 485.321045,655.912903 470.793762,656.823975 
z"/>
<path fill="#447BF4" opacity="1.000000" stroke="none" 
	d="
M903.000366,599.160645 
	C911.455994,599.160645 919.411682,599.160645 927.681152,599.160645 
	C927.681152,605.710632 927.681152,611.781067 927.681152,618.451172 
	C913.071899,618.451172 898.496765,618.451172 883.396973,618.451172 
	C883.396973,630.770752 883.396973,642.518311 883.396973,654.630127 
	C876.164062,654.630127 869.458984,654.630127 862.455139,654.630127 
	C862.455139,623.250854 862.455139,592.021545 862.455139,560.394226 
	C886.060608,560.394226 909.614319,560.394226 933.586304,560.394226 
	C933.586304,566.226318 933.586304,572.281860 933.586304,578.900635 
	C917.220398,578.900635 900.662598,578.900635 883.639038,578.900635 
	C883.639038,585.791077 883.639038,592.141968 883.639038,599.160583 
	C889.958130,599.160583 896.229309,599.160583 903.000366,599.160645 
z"/>
<path fill="#477EF4" opacity="1.000000" stroke="none" 
	d="
M744.140137,583.115601 
	C744.435364,579.144043 741.942932,579.561951 739.805542,579.557495 
	C731.989441,579.541321 724.173340,579.551086 715.907471,579.551086 
	C715.907471,572.979187 715.907471,566.770935 715.907471,560.271240 
	C741.879639,560.271240 767.768127,560.271240 793.919189,560.271240 
	C793.919189,566.640625 793.919189,572.736206 793.919189,579.546814 
	C787.156799,579.546814 780.542297,579.497437 773.928772,579.558594 
	C764.456177,579.646240 765.591675,578.433655 765.565002,587.683777 
	C765.506409,608.014648 765.546814,628.345886 765.546753,648.676941 
	C765.546753,650.637085 765.546753,652.597168 765.546753,654.731812 
	C758.197388,654.731812 751.453186,654.731812 744.144653,654.731812 
	C744.144653,630.839050 744.144653,607.222961 744.140137,583.115601 
z"/>
<path fill="#447BF4" opacity="1.000000" stroke="none" 
	d="
M835.170044,646.941650 
	C835.170105,649.736145 835.170105,652.039917 835.170105,654.672119 
	C828.189514,654.672119 821.599487,654.672119 814.581909,654.672119 
	C814.581909,623.385803 814.581909,592.029663 814.581909,560.333801 
	C821.183716,560.333801 827.760620,560.333801 835.170044,560.333801 
	C835.170044,588.999084 835.170044,617.724976 835.170044,646.941650 
z"/>
<path fill="#447BF4" opacity="1.000000" stroke="none" 
	d="
M976.170044,646.941650 
	C976.170105,649.736145 976.170105,652.039917 976.170105,654.672119 
	C969.189514,654.672119 962.599487,654.672119 955.581909,654.672119 
	C955.581909,623.385803 955.581909,592.029663 955.581909,560.333801 
	C962.183716,560.333801 968.760620,560.333801 976.170044,560.333801 
	C976.170044,588.999084 976.170044,617.724976 976.170044,646.941650 
z"/>
<path fill="#447BF4" opacity="1.000000" stroke="none" 
	d="
M591.004578,789.526733 
	C591.262573,788.330383 591.287842,787.310547 591.805603,786.871155 
	C599.536621,780.310730 614.477234,783.647766 618.111328,793.060120 
	C621.775757,802.550720 621.748657,812.360168 617.678406,821.741882 
	C613.599548,831.143188 604.419617,834.243591 591.000854,830.992554 
	C591.000854,817.438171 591.000854,803.705688 591.004578,789.526733 
z"/>
<path fill="#457CF4" opacity="1.000000" stroke="none" 
	d="
M710.526855,799.000854 
	C701.770264,798.974365 693.459900,798.951355 685.149536,798.905701 
	C684.844299,798.904053 684.540283,798.681213 684.236328,798.559692 
	C684.685852,789.069336 690.582642,782.913757 699.292847,782.841309 
	C708.351624,782.765930 713.643005,788.258789 714.291382,798.654419 
	C713.192932,798.768982 712.082947,798.884766 710.526855,799.000854 
z"/>
<path fill="#457CF4" opacity="1.000000" stroke="none" 
	d="
M1114.635986,782.923218 
	C1123.093384,784.880188 1126.491699,789.103210 1127.352905,798.595093 
	C1117.320312,798.595093 1107.313599,798.595093 1097.304321,798.600952 
	C1097.503784,788.555847 1103.620483,782.868408 1114.635986,782.923218 
z"/>
<path fill="#457CF4" opacity="1.000000" stroke="none" 
	d="
M954.978149,799.001160 
	C948.850647,799.001160 943.218811,799.001160 937.615784,799.001160 
	C936.813171,790.679626 942.869202,783.453064 950.866821,782.881531 
	C960.718201,782.177551 966.657166,787.807373 967.301697,799.001160 
	C963.343567,799.001160 959.408691,799.001160 954.978149,799.001160 
z"/>
<path fill="#FDFDFF" opacity="1.000000" stroke="none" 
	d="
M1105.220215,970.965515 
	C1109.245850,978.760071 1109.038208,986.133179 1104.258545,993.023254 
	C1100.342407,998.668640 1094.553345,1001.054565 1087.760254,1000.442017 
	C1079.052734,999.656799 1072.226074,992.948364 1071.067749,984.418762 
	C1069.805176,975.121216 1074.158813,966.619324 1081.864258,963.335022 
	C1090.369995,959.709534 1098.889526,962.393860 1105.220215,970.965515 
z"/>
<path fill="#FDFEFF" opacity="1.000000" stroke="none" 
	d="
M893.099731,964.269653 
	C899.344421,963.715759 905.588745,963.057190 911.676270,963.758545 
	C915.778442,964.231262 917.254578,968.138367 916.967896,972.217285 
	C916.655212,976.665344 914.013062,979.500916 909.787781,979.871460 
	C904.392822,980.344604 898.924988,979.986145 893.032654,979.986145 
	C893.032654,974.649963 893.032654,969.696960 893.099731,964.269653 
z"/>
<path fill="#FDFEFF" opacity="1.000000" stroke="none" 
	d="
M1168.980225,978.151428 
	C1162.046387,979.234802 1155.438354,980.082336 1148.354126,980.990906 
	C1148.354126,974.456604 1148.354126,969.072876 1148.354126,963.224976 
	C1154.104980,963.224976 1160.080933,962.502563 1165.796265,963.414246 
	C1172.421875,964.471252 1173.876465,971.654419 1168.980225,978.151428 
z"/>
<path fill="#FDFDFF" opacity="1.000000" stroke="none" 
	d="
M521.403809,963.020569 
	C532.859070,966.545532 537.953796,975.174744 535.426636,986.088013 
	C532.879150,997.089355 523.482239,1001.584595 507.336243,999.316650 
	C507.336243,987.468384 507.336243,975.567017 507.336243,962.968811 
	C511.828278,962.968811 516.398865,962.968811 521.403809,963.020569 
z"/>
<path fill="#FCFDFF" opacity="1.000000" stroke="none" 
	d="
M447.419800,976.404358 
	C448.790161,973.151245 449.986328,970.239441 451.585846,966.345825 
	C454.407623,973.221130 456.879944,979.244934 459.582275,985.829102 
	C453.995239,985.829102 449.144867,985.829102 443.690460,985.829102 
	C444.975800,982.545105 446.110748,979.645325 447.419800,976.404358 
z"/>
<path fill="#FCFDFF" opacity="1.000000" stroke="none" 
	d="
M976.504578,986.113525 
	C971.797546,986.154297 967.536865,986.154297 962.462952,986.154297 
	C965.251099,979.336975 967.725159,973.287720 970.584351,966.296875 
	C973.258362,972.858398 975.596375,978.502319 977.805725,984.196228 
	C977.979370,984.643799 977.256958,985.439026 976.504578,986.113525 
z"/>
<path fill="#FCFDFF" opacity="1.000000" stroke="none" 
	d="
M645.309326,579.162720 
	C651.756165,579.165833 657.742310,578.996277 663.714111,579.217102 
	C671.775513,579.515137 676.942810,583.524658 677.974915,589.873474 
	C679.347107,598.314148 674.354919,605.138794 665.664917,605.823181 
	C659.225403,606.330261 652.717834,605.975342 646.240601,606.001648 
	C644.775635,606.007629 643.310608,606.002563 641.205811,606.002563 
	C641.205811,597.523010 641.107544,589.440247 641.364319,581.368774 
	C641.388855,580.597717 643.630066,579.897156 645.309326,579.162720 
z"/>
<path fill="#FDFDFF" opacity="1.000000" stroke="none" 
	d="
M1135.635254,579.167297 
	C1150.061646,580.706482 1159.037842,587.836487 1161.863281,599.638428 
	C1164.969971,612.614990 1160.818604,625.264893 1150.788818,631.302490 
	C1147.059814,633.547241 1142.575317,635.185547 1138.272949,635.676514 
	C1131.892944,636.404602 1125.368408,635.864990 1118.536133,635.864990 
	C1118.536133,617.123657 1118.536133,598.589539 1118.536133,579.164978 
	C1124.035278,579.164978 1129.605591,579.164978 1135.635254,579.167297 
z"/>
</svg>